%TF.GenerationSoftware,KiCad,Pcbnew,(5.1.10)-1*%
%TF.CreationDate,2021-06-13T22:47:19+01:00*%
%TF.ProjectId,shield,73686965-6c64-42e6-9b69-6361645f7063,rev?*%
%TF.SameCoordinates,Original*%
%TF.FileFunction,Copper,L1,Top*%
%TF.FilePolarity,Positive*%
%FSLAX46Y46*%
G04 Gerber Fmt 4.6, Leading zero omitted, Abs format (unit mm)*
G04 Created by KiCad (PCBNEW (5.1.10)-1) date 2021-06-13 22:47:19*
%MOMM*%
%LPD*%
G01*
G04 APERTURE LIST*
%TA.AperFunction,ComponentPad*%
%ADD10C,1.800000*%
%TD*%
%TA.AperFunction,ComponentPad*%
%ADD11R,1.800000X1.800000*%
%TD*%
%TA.AperFunction,ComponentPad*%
%ADD12O,1.700000X1.700000*%
%TD*%
%TA.AperFunction,ComponentPad*%
%ADD13R,1.700000X1.700000*%
%TD*%
%TA.AperFunction,ComponentPad*%
%ADD14C,1.600000*%
%TD*%
%TA.AperFunction,ViaPad*%
%ADD15C,0.762000*%
%TD*%
%TA.AperFunction,Conductor*%
%ADD16C,0.762000*%
%TD*%
G04 APERTURE END LIST*
D10*
%TO.P,J11,4*%
%TO.N,PF9*%
X58420000Y-167005000D03*
%TO.P,J11,3*%
%TO.N,PG0*%
X58420000Y-170815000D03*
%TO.P,J11,2*%
%TO.N,PG1*%
X58420000Y-174625000D03*
D11*
%TO.P,J11,1*%
%TO.N,Net-(J11-Pad1)*%
X58420000Y-178435000D03*
%TD*%
D12*
%TO.P,CN10,34*%
%TO.N,PE0*%
X125730000Y-147955000D03*
%TO.P,CN10,33*%
%TO.N,PB11*%
X128270000Y-147955000D03*
%TO.P,CN10,32*%
%TO.N,PB0*%
X125730000Y-145415000D03*
%TO.P,CN10,31*%
%TO.N,PB10*%
X128270000Y-145415000D03*
%TO.P,CN10,30*%
%TO.N,PA0*%
X125730000Y-142875000D03*
%TO.P,CN10,29*%
%TO.N,PE15*%
X128270000Y-142875000D03*
%TO.P,CN10,28*%
%TO.N,GND*%
X125730000Y-140335000D03*
%TO.P,CN10,27*%
%TO.N,PE14*%
X128270000Y-140335000D03*
%TO.P,CN10,26*%
%TO.N,PE2*%
X125730000Y-137795000D03*
%TO.P,CN10,25*%
%TO.N,PE12*%
X128270000Y-137795000D03*
%TO.P,CN10,24*%
%TO.N,PD11*%
X125730000Y-135255000D03*
%TO.P,CN10,23*%
%TO.N,PE10*%
X128270000Y-135255000D03*
%TO.P,CN10,22*%
%TO.N,PD12*%
X125730000Y-132715000D03*
%TO.P,CN10,21*%
%TO.N,GND*%
X128270000Y-132715000D03*
%TO.P,CN10,20*%
%TO.N,PD13*%
X125730000Y-130175000D03*
%TO.P,CN10,19*%
%TO.N,PE7*%
X128270000Y-130175000D03*
%TO.P,CN10,18*%
%TO.N,GND*%
X125730000Y-127635000D03*
%TO.P,CN10,17*%
%TO.N,PE8*%
X128270000Y-127635000D03*
%TO.P,CN10,16*%
%TO.N,PB2*%
X125730000Y-125095000D03*
%TO.P,CN10,15*%
%TO.N,PG9*%
X128270000Y-125095000D03*
%TO.P,CN10,14*%
%TO.N,PB6*%
X125730000Y-122555000D03*
%TO.P,CN10,13*%
%TO.N,PG14*%
X128270000Y-122555000D03*
%TO.P,CN10,12*%
%TO.N,PF4*%
X125730000Y-120015000D03*
%TO.P,CN10,11*%
%TO.N,PF15*%
X128270000Y-120015000D03*
%TO.P,CN10,10*%
%TO.N,PC2*%
X125730000Y-117475000D03*
%TO.P,CN10,9*%
%TO.N,PE13*%
X128270000Y-117475000D03*
%TO.P,CN10,8*%
%TO.N,PB1*%
X125730000Y-114935000D03*
%TO.P,CN10,7*%
%TO.N,PF14*%
X128270000Y-114935000D03*
%TO.P,CN10,6*%
%TO.N,GND*%
X125730000Y-112395000D03*
%TO.P,CN10,5*%
%TO.N,PE11*%
X128270000Y-112395000D03*
%TO.P,CN10,4*%
%TO.N,AGND*%
X125730000Y-109855000D03*
%TO.P,CN10,3*%
%TO.N,PE9*%
X128270000Y-109855000D03*
%TO.P,CN10,2*%
%TO.N,AVDD*%
X125730000Y-107315000D03*
D13*
%TO.P,CN10,1*%
%TO.N,PF13*%
X128270000Y-107315000D03*
%TD*%
D10*
%TO.P,J12,4*%
%TO.N,PA0*%
X147320000Y-142875000D03*
%TO.P,J12,3*%
%TO.N,PF4*%
X147320000Y-139065000D03*
%TO.P,J12,2*%
%TO.N,PC2*%
X147320000Y-135255000D03*
D11*
%TO.P,J12,1*%
%TO.N,PB1*%
X147320000Y-131445000D03*
%TD*%
D14*
%TO.P,C_SLINHA1,2*%
%TO.N,GND*%
X66040000Y-72470000D03*
%TO.P,C_SLINHA1,1*%
%TO.N,+3V3*%
X66040000Y-77470000D03*
%TD*%
%TO.P,C_SOBST1,2*%
%TO.N,GND*%
X66040000Y-65310000D03*
%TO.P,C_SOBST1,1*%
%TO.N,+5V*%
X66040000Y-60310000D03*
%TD*%
%TO.P,C_RFID1,2*%
%TO.N,GND*%
X147400000Y-54610000D03*
%TO.P,C_RFID1,1*%
%TO.N,+3V3*%
X152400000Y-54610000D03*
%TD*%
%TO.P,C_BLUE1,2*%
%TO.N,GND*%
X95885000Y-193595000D03*
%TO.P,C_BLUE1,1*%
%TO.N,+5V*%
X95885000Y-188595000D03*
%TD*%
D10*
%TO.P,J10,4*%
%TO.N,GND*%
X58420000Y-149225000D03*
%TO.P,J10,3*%
%TO.N,PD0*%
X58420000Y-153035000D03*
%TO.P,J10,2*%
%TO.N,PF7*%
X58420000Y-156845000D03*
D11*
%TO.P,J10,1*%
%TO.N,PD1*%
X58420000Y-160655000D03*
%TD*%
D10*
%TO.P,J9,4*%
%TO.N,PF1*%
X58420000Y-131445000D03*
%TO.P,J9,3*%
%TO.N,PE6*%
X58420000Y-135255000D03*
%TO.P,J9,2*%
%TO.N,PF0*%
X58420000Y-139065000D03*
D11*
%TO.P,J9,1*%
%TO.N,PE3*%
X58420000Y-142875000D03*
%TD*%
D10*
%TO.P,J8,4*%
%TO.N,PA7*%
X58420000Y-113665000D03*
%TO.P,J8,3*%
%TO.N,PE4*%
X58420000Y-117475000D03*
%TO.P,J8,2*%
%TO.N,PF2*%
X58420000Y-121285000D03*
D11*
%TO.P,J8,1*%
%TO.N,PE5*%
X58420000Y-125095000D03*
%TD*%
D12*
%TO.P,PS_5V1,6*%
%TO.N,+5V*%
X53340000Y-33020000D03*
%TO.P,PS_5V1,5*%
%TO.N,GND*%
X55880000Y-33020000D03*
%TO.P,PS_5V1,4*%
%TO.N,Net-(PS_5V1-Pad4)*%
X53340000Y-30480000D03*
%TO.P,PS_5V1,3*%
%TO.N,Net-(PS_5V1-Pad3)*%
X55880000Y-30480000D03*
%TO.P,PS_5V1,2*%
%TO.N,+5V*%
X53340000Y-27940000D03*
D13*
%TO.P,PS_5V1,1*%
%TO.N,GND*%
X55880000Y-27940000D03*
%TD*%
D12*
%TO.P,PS_3V3,6*%
%TO.N,+3V3*%
X99060000Y-33020000D03*
%TO.P,PS_3V3,5*%
%TO.N,GND*%
X101600000Y-33020000D03*
%TO.P,PS_3V3,4*%
%TO.N,Net-(PS_3V3-Pad4)*%
X99060000Y-30480000D03*
%TO.P,PS_3V3,3*%
%TO.N,Net-(PS_3V3-Pad3)*%
X101600000Y-30480000D03*
%TO.P,PS_3V3,2*%
%TO.N,+3V3*%
X99060000Y-27940000D03*
D13*
%TO.P,PS_3V3,1*%
%TO.N,GND*%
X101600000Y-27940000D03*
%TD*%
D10*
%TO.P,J7,4*%
%TO.N,GND*%
X147320000Y-71755000D03*
%TO.P,J7,3*%
%TO.N,+3V3*%
X147320000Y-67945000D03*
%TO.P,J7,2*%
%TO.N,PC8*%
X147320000Y-64135000D03*
D11*
%TO.P,J7,1*%
%TO.N,GND*%
X147320000Y-60325000D03*
%TD*%
%TO.P,J6,1*%
%TO.N,PC9*%
X147320000Y-78105000D03*
D10*
%TO.P,J6,2*%
%TO.N,PC10*%
X147320000Y-81915000D03*
%TO.P,J6,3*%
%TO.N,PC11*%
X147320000Y-85725000D03*
%TO.P,J6,4*%
%TO.N,PC12*%
X147320000Y-89535000D03*
%TD*%
D11*
%TO.P,J5,1*%
%TO.N,PD2*%
X147320000Y-95885000D03*
D10*
%TO.P,J5,2*%
%TO.N,PB8*%
X147320000Y-99695000D03*
%TO.P,J5,3*%
%TO.N,PB9*%
X147320000Y-103505000D03*
%TO.P,J5,4*%
%TO.N,PA5*%
X147320000Y-107315000D03*
%TD*%
D11*
%TO.P,J4,1*%
%TO.N,PA6*%
X147320000Y-113665000D03*
D10*
%TO.P,J4,2*%
%TO.N,PD14*%
X147320000Y-117475000D03*
%TO.P,J4,3*%
%TO.N,PD15*%
X147320000Y-121285000D03*
%TO.P,J4,4*%
%TO.N,GND*%
X147320000Y-125095000D03*
%TD*%
%TO.P,J3,4*%
%TO.N,+5V*%
X58420000Y-60325000D03*
%TO.P,J3,3*%
%TO.N,GND*%
X58420000Y-64135000D03*
%TO.P,J3,2*%
%TO.N,PA3*%
X58420000Y-67945000D03*
D11*
%TO.P,J3,1*%
%TO.N,GND*%
X58420000Y-71755000D03*
%TD*%
D10*
%TO.P,J2,4*%
%TO.N,+3V3*%
X58420000Y-78105000D03*
%TO.P,J2,3*%
X58420000Y-81915000D03*
%TO.P,J2,2*%
%TO.N,PC0*%
X58420000Y-85725000D03*
D11*
%TO.P,J2,1*%
%TO.N,PC3*%
X58420000Y-89535000D03*
%TD*%
D10*
%TO.P,J1,4*%
%TO.N,PF3*%
X58420000Y-95885000D03*
%TO.P,J1,3*%
%TO.N,PF5*%
X58420000Y-99695000D03*
%TO.P,J1,2*%
%TO.N,PF10*%
X58420000Y-103505000D03*
D11*
%TO.P,J1,1*%
%TO.N,PF8*%
X58420000Y-107315000D03*
%TD*%
D12*
%TO.P,CN9,30*%
%TO.N,PG0*%
X80010000Y-147955000D03*
%TO.P,CN9,29*%
%TO.N,PG1*%
X82550000Y-147955000D03*
%TO.P,CN9,28*%
%TO.N,PD1*%
X80010000Y-145415000D03*
%TO.P,CN9,27*%
%TO.N,PF9*%
X82550000Y-145415000D03*
%TO.P,CN9,26*%
%TO.N,PD0*%
X80010000Y-142875000D03*
%TO.P,CN9,25*%
%TO.N,PF7*%
X82550000Y-142875000D03*
%TO.P,CN9,24*%
%TO.N,GND*%
X80010000Y-140335000D03*
%TO.P,CN9,23*%
%TO.N,PF8*%
X82550000Y-140335000D03*
%TO.P,CN9,22*%
%TO.N,PF0*%
X80010000Y-137795000D03*
%TO.P,CN9,21*%
%TO.N,PE3*%
X82550000Y-137795000D03*
%TO.P,CN9,20*%
%TO.N,PF1*%
X80010000Y-135255000D03*
%TO.P,CN9,19*%
%TO.N,PE6*%
X82550000Y-135255000D03*
%TO.P,CN9,18*%
%TO.N,PF2*%
X80010000Y-132715000D03*
%TO.P,CN9,17*%
%TO.N,PE5*%
X82550000Y-132715000D03*
%TO.P,CN9,16*%
%TO.N,PA7*%
X80010000Y-130175000D03*
%TO.P,CN9,15*%
%TO.N,PE4*%
X82550000Y-130175000D03*
%TO.P,CN9,14*%
%TO.N,NC*%
X80010000Y-127635000D03*
%TO.P,CN9,13*%
%TO.N,PE2*%
X82550000Y-127635000D03*
%TO.P,CN9,12*%
%TO.N,PF10*%
X80010000Y-125095000D03*
%TO.P,CN9,11*%
%TO.N,GND*%
X82550000Y-125095000D03*
%TO.P,CN9,10*%
%TO.N,PF5*%
X80010000Y-122555000D03*
%TO.P,CN9,9*%
%TO.N,PD3*%
X82550000Y-122555000D03*
%TO.P,CN9,8*%
%TO.N,PF3*%
X80010000Y-120015000D03*
%TO.P,CN9,7*%
%TO.N,PD4*%
X82550000Y-120015000D03*
%TO.P,CN9,6*%
%TO.N,PC3*%
X80010000Y-117475000D03*
%TO.P,CN9,5*%
%TO.N,PD5*%
X82550000Y-117475000D03*
%TO.P,CN9,4*%
%TO.N,PC0*%
X80010000Y-114935000D03*
%TO.P,CN9,3*%
%TO.N,PD6*%
X82550000Y-114935000D03*
%TO.P,CN9,2*%
%TO.N,PA3*%
X80010000Y-112395000D03*
D13*
%TO.P,CN9,1*%
%TO.N,PD7*%
X82550000Y-112395000D03*
%TD*%
D12*
%TO.P,CN8,16*%
%TO.N,VIN*%
X80010000Y-107315000D03*
%TO.P,CN8,15*%
%TO.N,PG3*%
X82550000Y-107315000D03*
%TO.P,CN8,14*%
%TO.N,GND*%
X80010000Y-104775000D03*
%TO.P,CN8,13*%
%TO.N,PG2*%
X82550000Y-104775000D03*
%TO.P,CN8,12*%
%TO.N,GND*%
X80010000Y-102235000D03*
%TO.P,CN8,11*%
%TO.N,PD2*%
X82550000Y-102235000D03*
%TO.P,CN8,10*%
%TO.N,5V*%
X80010000Y-99695000D03*
%TO.P,CN8,9*%
%TO.N,PC12*%
X82550000Y-99695000D03*
%TO.P,CN8,8*%
%TO.N,3.3V*%
X80010000Y-97155000D03*
%TO.P,CN8,7*%
%TO.N,PC11*%
X82550000Y-97155000D03*
%TO.P,CN8,6*%
%TO.N,RSET*%
X80010000Y-94615000D03*
%TO.P,CN8,5*%
%TO.N,PC10*%
X82550000Y-94615000D03*
%TO.P,CN8,4*%
%TO.N,IOREF*%
X80010000Y-92075000D03*
%TO.P,CN8,3*%
%TO.N,PC9*%
X82550000Y-92075000D03*
%TO.P,CN8,2*%
%TO.N,NC*%
X80010000Y-89535000D03*
D13*
%TO.P,CN8,1*%
%TO.N,PC8*%
X82550000Y-89535000D03*
%TD*%
D12*
%TO.P,CN7,20*%
%TO.N,PB4*%
X125730000Y-103505000D03*
%TO.P,CN7,19*%
%TO.N,PF12*%
X128270000Y-103505000D03*
%TO.P,CN7,18*%
%TO.N,PA4*%
X125730000Y-100965000D03*
%TO.P,CN7,17*%
%TO.N,PD15*%
X128270000Y-100965000D03*
%TO.P,CN7,16*%
%TO.N,PB3*%
X125730000Y-98425000D03*
%TO.P,CN7,15*%
%TO.N,PD14*%
X128270000Y-98425000D03*
%TO.P,CN7,14*%
%TO.N,PB5*%
X125730000Y-95885000D03*
%TO.P,CN7,13*%
%TO.N,PA7*%
X128270000Y-95885000D03*
%TO.P,CN7,12*%
%TO.N,PC7*%
X125730000Y-93345000D03*
%TO.P,CN7,11*%
%TO.N,PA6*%
X128270000Y-93345000D03*
%TO.P,CN7,10*%
%TO.N,PA15*%
X125730000Y-90805000D03*
%TO.P,CN7,9*%
%TO.N,PA5*%
X128270000Y-90805000D03*
%TO.P,CN7,8*%
%TO.N,PB12*%
X125730000Y-88265000D03*
%TO.P,CN7,7*%
%TO.N,GND*%
X128270000Y-88265000D03*
%TO.P,CN7,6*%
%TO.N,PB13*%
X125730000Y-85725000D03*
%TO.P,CN7,5*%
%TO.N,AVDD*%
X128270000Y-85725000D03*
%TO.P,CN7,4*%
%TO.N,PB15*%
X125730000Y-83185000D03*
%TO.P,CN7,3*%
%TO.N,PB9*%
X128270000Y-83185000D03*
%TO.P,CN7,2*%
%TO.N,PC6*%
X125730000Y-80645000D03*
D13*
%TO.P,CN7,1*%
%TO.N,PB8*%
X128270000Y-80645000D03*
%TD*%
D12*
%TO.P,Bluetooth1,6*%
%TO.N,Net-(Bluetooth1-Pad6)*%
X100330000Y-193675000D03*
%TO.P,Bluetooth1,5*%
%TO.N,+5V*%
X102870000Y-193675000D03*
%TO.P,Bluetooth1,4*%
%TO.N,GND*%
X105410000Y-193675000D03*
%TO.P,Bluetooth1,3*%
%TO.N,PB15*%
X107950000Y-193675000D03*
%TO.P,Bluetooth1,2*%
%TO.N,PB6*%
X110490000Y-193675000D03*
D13*
%TO.P,Bluetooth1,1*%
%TO.N,Net-(Bluetooth1-Pad1)*%
X113030000Y-193675000D03*
%TD*%
D15*
%TO.N,+5V*%
X71120000Y-44450000D03*
X71120000Y-38100000D03*
%TD*%
D16*
%TO.N,+5V*%
X71120000Y-44450000D02*
X71120000Y-38100000D01*
%TD*%
M02*
