M48
; DRILL file {KiCad (5.1.10)-1} date 06/13/21 22:48:55
; FORMAT={-:-/ absolute / inch / decimal}
; #@! TF.CreationDate,2021-06-13T22:48:55+01:00
; #@! TF.GenerationSoftware,Kicad,Pcbnew,(5.1.10)-1
; #@! TF.FileFunction,Plated,1,2,PTH
FMAT,2
INCH
T1C0.0100
T2C0.0315
T3C0.0394
T4C0.0472
%
G90
G05
T1
X2.8Y-1.5
X2.8Y-1.75
T2
X2.6Y-2.3744
X2.6Y-2.5713
X2.6Y-2.8531
X2.6Y-3.05
X3.775Y-7.425
X3.775Y-7.6219
X5.8031Y-2.15
X6.0Y-2.15
T3
X2.1Y-1.1
X2.1Y-1.2
X2.1Y-1.3
X2.2Y-1.1
X2.2Y-1.2
X2.2Y-1.3
X3.15Y-3.525
X3.15Y-3.625
X3.15Y-3.725
X3.15Y-3.825
X3.15Y-3.925
X3.15Y-4.025
X3.15Y-4.125
X3.15Y-4.225
X3.15Y-4.425
X3.15Y-4.525
X3.15Y-4.625
X3.15Y-4.725
X3.15Y-4.825
X3.15Y-4.925
X3.15Y-5.025
X3.15Y-5.125
X3.15Y-5.225
X3.15Y-5.325
X3.15Y-5.425
X3.15Y-5.525
X3.15Y-5.625
X3.15Y-5.725
X3.15Y-5.825
X3.25Y-3.525
X3.25Y-3.625
X3.25Y-3.725
X3.25Y-3.825
X3.25Y-3.925
X3.25Y-4.025
X3.25Y-4.125
X3.25Y-4.225
X3.25Y-4.425
X3.25Y-4.525
X3.25Y-4.625
X3.25Y-4.725
X3.25Y-4.825
X3.25Y-4.925
X3.25Y-5.025
X3.25Y-5.125
X3.25Y-5.225
X3.25Y-5.325
X3.25Y-5.425
X3.25Y-5.525
X3.25Y-5.625
X3.25Y-5.725
X3.25Y-5.825
X3.9Y-1.1
X3.9Y-1.2
X3.9Y-1.3
X3.95Y-7.625
X4.0Y-1.1
X4.0Y-1.2
X4.0Y-1.3
X4.05Y-7.625
X4.15Y-7.625
X4.25Y-7.625
X4.35Y-7.625
X4.45Y-7.625
X4.95Y-3.175
X4.95Y-3.275
X4.95Y-3.375
X4.95Y-3.475
X4.95Y-3.575
X4.95Y-3.675
X4.95Y-3.775
X4.95Y-3.875
X4.95Y-3.975
X4.95Y-4.075
X4.95Y-4.225
X4.95Y-4.325
X4.95Y-4.425
X4.95Y-4.525
X4.95Y-4.625
X4.95Y-4.725
X4.95Y-4.825
X4.95Y-4.925
X4.95Y-5.025
X4.95Y-5.125
X4.95Y-5.225
X4.95Y-5.325
X4.95Y-5.425
X4.95Y-5.525
X4.95Y-5.625
X4.95Y-5.725
X4.95Y-5.825
X5.05Y-3.175
X5.05Y-3.275
X5.05Y-3.375
X5.05Y-3.475
X5.05Y-3.575
X5.05Y-3.675
X5.05Y-3.775
X5.05Y-3.875
X5.05Y-3.975
X5.05Y-4.075
X5.05Y-4.225
X5.05Y-4.325
X5.05Y-4.425
X5.05Y-4.525
X5.05Y-4.625
X5.05Y-4.725
X5.05Y-4.825
X5.05Y-4.925
X5.05Y-5.025
X5.05Y-5.125
X5.05Y-5.225
X5.05Y-5.325
X5.05Y-5.425
X5.05Y-5.525
X5.05Y-5.625
X5.05Y-5.725
X5.05Y-5.825
T4
X2.3Y-2.375
X2.3Y-2.525
X2.3Y-2.675
X2.3Y-2.825
X2.3Y-3.075
X2.3Y-3.225
X2.3Y-3.375
X2.3Y-3.525
X2.3Y-3.775
X2.3Y-3.925
X2.3Y-4.075
X2.3Y-4.225
X2.3Y-4.475
X2.3Y-4.625
X2.3Y-4.775
X2.3Y-4.925
X2.3Y-5.175
X2.3Y-5.325
X2.3Y-5.475
X2.3Y-5.625
X2.3Y-5.875
X2.3Y-6.025
X2.3Y-6.175
X2.3Y-6.325
X2.3Y-6.575
X2.3Y-6.725
X2.3Y-6.875
X2.3Y-7.025
X5.8Y-2.375
X5.8Y-2.525
X5.8Y-2.675
X5.8Y-2.825
X5.8Y-3.075
X5.8Y-3.225
X5.8Y-3.375
X5.8Y-3.525
X5.8Y-3.775
X5.8Y-3.925
X5.8Y-4.075
X5.8Y-4.225
X5.8Y-4.475
X5.8Y-4.625
X5.8Y-4.775
X5.8Y-4.925
X5.8Y-5.175
X5.8Y-5.325
X5.8Y-5.475
X5.8Y-5.625
T0
M30
