%TF.GenerationSoftware,KiCad,Pcbnew,(5.1.10)-1*%
%TF.CreationDate,2021-06-13T22:47:20+01:00*%
%TF.ProjectId,shield,73686965-6c64-42e6-9b69-6361645f7063,rev?*%
%TF.SameCoordinates,Original*%
%TF.FileFunction,Legend,Top*%
%TF.FilePolarity,Positive*%
%FSLAX46Y46*%
G04 Gerber Fmt 4.6, Leading zero omitted, Abs format (unit mm)*
G04 Created by KiCad (PCBNEW (5.1.10)-1) date 2021-06-13 22:47:20*
%MOMM*%
%LPD*%
G01*
G04 APERTURE LIST*
%ADD10C,0.150000*%
%ADD11C,0.600000*%
%ADD12C,0.200000*%
%ADD13C,0.127000*%
%ADD14C,0.120000*%
%ADD15C,0.015000*%
G04 APERTURE END LIST*
D10*
X49077619Y-173386904D02*
X50077619Y-173386904D01*
X50077619Y-173767857D01*
X50030000Y-173863095D01*
X49982380Y-173910714D01*
X49887142Y-173958333D01*
X49744285Y-173958333D01*
X49649047Y-173910714D01*
X49601428Y-173863095D01*
X49553809Y-173767857D01*
X49553809Y-173386904D01*
X50030000Y-174910714D02*
X50077619Y-174815476D01*
X50077619Y-174672619D01*
X50030000Y-174529761D01*
X49934761Y-174434523D01*
X49839523Y-174386904D01*
X49649047Y-174339285D01*
X49506190Y-174339285D01*
X49315714Y-174386904D01*
X49220476Y-174434523D01*
X49125238Y-174529761D01*
X49077619Y-174672619D01*
X49077619Y-174767857D01*
X49125238Y-174910714D01*
X49172857Y-174958333D01*
X49506190Y-174958333D01*
X49506190Y-174767857D01*
X49077619Y-175910714D02*
X49077619Y-175339285D01*
X49077619Y-175625000D02*
X50077619Y-175625000D01*
X49934761Y-175529761D01*
X49839523Y-175434523D01*
X49791904Y-175339285D01*
D11*
X129350952Y-32289523D02*
X129350952Y-28289523D01*
X130303333Y-28289523D01*
X130874761Y-28480000D01*
X131255714Y-28860952D01*
X131446190Y-29241904D01*
X131636666Y-30003809D01*
X131636666Y-30575238D01*
X131446190Y-31337142D01*
X131255714Y-31718095D01*
X130874761Y-32099047D01*
X130303333Y-32289523D01*
X129350952Y-32289523D01*
X132970000Y-28289523D02*
X133922380Y-32289523D01*
X134684285Y-29432380D01*
X135446190Y-32289523D01*
X136398571Y-28289523D01*
X140208095Y-32289523D02*
X138874761Y-30384761D01*
X137922380Y-32289523D02*
X137922380Y-28289523D01*
X139446190Y-28289523D01*
X139827142Y-28480000D01*
X140017619Y-28670476D01*
X140208095Y-29051428D01*
X140208095Y-29622857D01*
X140017619Y-30003809D01*
X139827142Y-30194285D01*
X139446190Y-30384761D01*
X137922380Y-30384761D01*
X141922380Y-30765714D02*
X144970000Y-30765714D01*
X148970000Y-32289523D02*
X146684285Y-32289523D01*
X147827142Y-32289523D02*
X147827142Y-28289523D01*
X147446190Y-28860952D01*
X147065238Y-29241904D01*
X146684285Y-29432380D01*
X150874761Y-32289523D02*
X151636666Y-32289523D01*
X152017619Y-32099047D01*
X152208095Y-31908571D01*
X152589047Y-31337142D01*
X152779523Y-30575238D01*
X152779523Y-29051428D01*
X152589047Y-28670476D01*
X152398571Y-28480000D01*
X152017619Y-28289523D01*
X151255714Y-28289523D01*
X150874761Y-28480000D01*
X150684285Y-28670476D01*
X150493809Y-29051428D01*
X150493809Y-30003809D01*
X150684285Y-30384761D01*
X150874761Y-30575238D01*
X151255714Y-30765714D01*
X152017619Y-30765714D01*
X152398571Y-30575238D01*
X152589047Y-30384761D01*
X152779523Y-30003809D01*
D10*
X156662380Y-145311666D02*
X155662380Y-145311666D01*
X155662380Y-144930714D01*
X155710000Y-144835476D01*
X155757619Y-144787857D01*
X155852857Y-144740238D01*
X155995714Y-144740238D01*
X156090952Y-144787857D01*
X156138571Y-144835476D01*
X156186190Y-144930714D01*
X156186190Y-145311666D01*
X156376666Y-144359285D02*
X156376666Y-143883095D01*
X156662380Y-144454523D02*
X155662380Y-144121190D01*
X156662380Y-143787857D01*
X155662380Y-143264047D02*
X155662380Y-143168809D01*
X155710000Y-143073571D01*
X155757619Y-143025952D01*
X155852857Y-142978333D01*
X156043333Y-142930714D01*
X156281428Y-142930714D01*
X156471904Y-142978333D01*
X156567142Y-143025952D01*
X156614761Y-143073571D01*
X156662380Y-143168809D01*
X156662380Y-143264047D01*
X156614761Y-143359285D01*
X156567142Y-143406904D01*
X156471904Y-143454523D01*
X156281428Y-143502142D01*
X156043333Y-143502142D01*
X155852857Y-143454523D01*
X155757619Y-143406904D01*
X155710000Y-143359285D01*
X155662380Y-143264047D01*
X156662380Y-140866666D02*
X155662380Y-140866666D01*
X155662380Y-140485714D01*
X155710000Y-140390476D01*
X155757619Y-140342857D01*
X155852857Y-140295238D01*
X155995714Y-140295238D01*
X156090952Y-140342857D01*
X156138571Y-140390476D01*
X156186190Y-140485714D01*
X156186190Y-140866666D01*
X156138571Y-139533333D02*
X156138571Y-139866666D01*
X156662380Y-139866666D02*
X155662380Y-139866666D01*
X155662380Y-139390476D01*
X155995714Y-138580952D02*
X156662380Y-138580952D01*
X155614761Y-138819047D02*
X156329047Y-139057142D01*
X156329047Y-138438095D01*
X156662380Y-137128095D02*
X155662380Y-137128095D01*
X155662380Y-136747142D01*
X155710000Y-136651904D01*
X155757619Y-136604285D01*
X155852857Y-136556666D01*
X155995714Y-136556666D01*
X156090952Y-136604285D01*
X156138571Y-136651904D01*
X156186190Y-136747142D01*
X156186190Y-137128095D01*
X156567142Y-135556666D02*
X156614761Y-135604285D01*
X156662380Y-135747142D01*
X156662380Y-135842380D01*
X156614761Y-135985238D01*
X156519523Y-136080476D01*
X156424285Y-136128095D01*
X156233809Y-136175714D01*
X156090952Y-136175714D01*
X155900476Y-136128095D01*
X155805238Y-136080476D01*
X155710000Y-135985238D01*
X155662380Y-135842380D01*
X155662380Y-135747142D01*
X155710000Y-135604285D01*
X155757619Y-135556666D01*
X155757619Y-135175714D02*
X155710000Y-135128095D01*
X155662380Y-135032857D01*
X155662380Y-134794761D01*
X155710000Y-134699523D01*
X155757619Y-134651904D01*
X155852857Y-134604285D01*
X155948095Y-134604285D01*
X156090952Y-134651904D01*
X156662380Y-135223333D01*
X156662380Y-134604285D01*
X156662380Y-132048095D02*
X155662380Y-132048095D01*
X155662380Y-131667142D01*
X155710000Y-131571904D01*
X155757619Y-131524285D01*
X155852857Y-131476666D01*
X155995714Y-131476666D01*
X156090952Y-131524285D01*
X156138571Y-131571904D01*
X156186190Y-131667142D01*
X156186190Y-132048095D01*
X156138571Y-130714761D02*
X156186190Y-130571904D01*
X156233809Y-130524285D01*
X156329047Y-130476666D01*
X156471904Y-130476666D01*
X156567142Y-130524285D01*
X156614761Y-130571904D01*
X156662380Y-130667142D01*
X156662380Y-131048095D01*
X155662380Y-131048095D01*
X155662380Y-130714761D01*
X155710000Y-130619523D01*
X155757619Y-130571904D01*
X155852857Y-130524285D01*
X155948095Y-130524285D01*
X156043333Y-130571904D01*
X156090952Y-130619523D01*
X156138571Y-130714761D01*
X156138571Y-131048095D01*
X156662380Y-129524285D02*
X156662380Y-130095714D01*
X156662380Y-129810000D02*
X155662380Y-129810000D01*
X155805238Y-129905238D01*
X155900476Y-130000476D01*
X155948095Y-130095714D01*
X155710000Y-126491904D02*
X155662380Y-126587142D01*
X155662380Y-126730000D01*
X155710000Y-126872857D01*
X155805238Y-126968095D01*
X155900476Y-127015714D01*
X156090952Y-127063333D01*
X156233809Y-127063333D01*
X156424285Y-127015714D01*
X156519523Y-126968095D01*
X156614761Y-126872857D01*
X156662380Y-126730000D01*
X156662380Y-126634761D01*
X156614761Y-126491904D01*
X156567142Y-126444285D01*
X156233809Y-126444285D01*
X156233809Y-126634761D01*
X156662380Y-126015714D02*
X155662380Y-126015714D01*
X156662380Y-125444285D01*
X155662380Y-125444285D01*
X156662380Y-124968095D02*
X155662380Y-124968095D01*
X155662380Y-124730000D01*
X155710000Y-124587142D01*
X155805238Y-124491904D01*
X155900476Y-124444285D01*
X156090952Y-124396666D01*
X156233809Y-124396666D01*
X156424285Y-124444285D01*
X156519523Y-124491904D01*
X156614761Y-124587142D01*
X156662380Y-124730000D01*
X156662380Y-124968095D01*
X156662380Y-123094523D02*
X155662380Y-123094523D01*
X155662380Y-122713571D01*
X155710000Y-122618333D01*
X155757619Y-122570714D01*
X155852857Y-122523095D01*
X155995714Y-122523095D01*
X156090952Y-122570714D01*
X156138571Y-122618333D01*
X156186190Y-122713571D01*
X156186190Y-123094523D01*
X155662380Y-122189761D02*
X156662380Y-121951666D01*
X155948095Y-121761190D01*
X156662380Y-121570714D01*
X155662380Y-121332619D01*
X156662380Y-120951666D02*
X155662380Y-120951666D01*
X156376666Y-120618333D01*
X155662380Y-120285000D01*
X156662380Y-120285000D01*
X156662380Y-119332619D02*
X156662380Y-119808809D01*
X155662380Y-119808809D01*
X156662380Y-118879761D02*
X155662380Y-118879761D01*
X156662380Y-118403571D02*
X155662380Y-118403571D01*
X156662380Y-117832142D01*
X155662380Y-117832142D01*
X155757619Y-117403571D02*
X155710000Y-117355952D01*
X155662380Y-117260714D01*
X155662380Y-117022619D01*
X155710000Y-116927380D01*
X155757619Y-116879761D01*
X155852857Y-116832142D01*
X155948095Y-116832142D01*
X156090952Y-116879761D01*
X156662380Y-117451190D01*
X156662380Y-116832142D01*
X156662380Y-115927380D02*
X156662380Y-116403571D01*
X155662380Y-116403571D01*
X156662380Y-115069761D02*
X155662380Y-115069761D01*
X156662380Y-114593571D02*
X155662380Y-114593571D01*
X156662380Y-114022142D01*
X155662380Y-114022142D01*
X156662380Y-113022142D02*
X156662380Y-113593571D01*
X156662380Y-113307857D02*
X155662380Y-113307857D01*
X155805238Y-113403095D01*
X155900476Y-113498333D01*
X155948095Y-113593571D01*
X156662380Y-112117380D02*
X156662380Y-112593571D01*
X155662380Y-112593571D01*
X156662380Y-110085000D02*
X155662380Y-110085000D01*
X156662380Y-109608809D02*
X155662380Y-109608809D01*
X156662380Y-109037380D01*
X155662380Y-109037380D01*
X155757619Y-108608809D02*
X155710000Y-108561190D01*
X155662380Y-108465952D01*
X155662380Y-108227857D01*
X155710000Y-108132619D01*
X155757619Y-108085000D01*
X155852857Y-108037380D01*
X155948095Y-108037380D01*
X156090952Y-108085000D01*
X156662380Y-108656428D01*
X156662380Y-108037380D01*
X156662380Y-107037380D02*
X156186190Y-107370714D01*
X156662380Y-107608809D02*
X155662380Y-107608809D01*
X155662380Y-107227857D01*
X155710000Y-107132619D01*
X155757619Y-107085000D01*
X155852857Y-107037380D01*
X155995714Y-107037380D01*
X156090952Y-107085000D01*
X156138571Y-107132619D01*
X156186190Y-107227857D01*
X156186190Y-107608809D01*
X156662380Y-105640000D02*
X155662380Y-105640000D01*
X156662380Y-105163809D02*
X155662380Y-105163809D01*
X156662380Y-104592380D01*
X155662380Y-104592380D01*
X156662380Y-103592380D02*
X156662380Y-104163809D01*
X156662380Y-103878095D02*
X155662380Y-103878095D01*
X155805238Y-103973333D01*
X155900476Y-104068571D01*
X155948095Y-104163809D01*
X156662380Y-102592380D02*
X156186190Y-102925714D01*
X156662380Y-103163809D02*
X155662380Y-103163809D01*
X155662380Y-102782857D01*
X155710000Y-102687619D01*
X155757619Y-102640000D01*
X155852857Y-102592380D01*
X155995714Y-102592380D01*
X156090952Y-102640000D01*
X156138571Y-102687619D01*
X156186190Y-102782857D01*
X156186190Y-103163809D01*
X156662380Y-101599761D02*
X155662380Y-101599761D01*
X155662380Y-101218809D01*
X155710000Y-101123571D01*
X155757619Y-101075952D01*
X155852857Y-101028333D01*
X155995714Y-101028333D01*
X156090952Y-101075952D01*
X156138571Y-101123571D01*
X156186190Y-101218809D01*
X156186190Y-101599761D01*
X155662380Y-100695000D02*
X156662380Y-100456904D01*
X155948095Y-100266428D01*
X156662380Y-100075952D01*
X155662380Y-99837857D01*
X156662380Y-99456904D02*
X155662380Y-99456904D01*
X156376666Y-99123571D01*
X155662380Y-98790238D01*
X156662380Y-98790238D01*
X156662380Y-97742619D02*
X156186190Y-98075952D01*
X156662380Y-98314047D02*
X155662380Y-98314047D01*
X155662380Y-97933095D01*
X155710000Y-97837857D01*
X155757619Y-97790238D01*
X155852857Y-97742619D01*
X155995714Y-97742619D01*
X156090952Y-97790238D01*
X156138571Y-97837857D01*
X156186190Y-97933095D01*
X156186190Y-98314047D01*
X156614761Y-97099285D02*
X156662380Y-96956428D01*
X156662380Y-96718333D01*
X156614761Y-96623095D01*
X156567142Y-96575476D01*
X156471904Y-96527857D01*
X156376666Y-96527857D01*
X156281428Y-96575476D01*
X156233809Y-96623095D01*
X156186190Y-96718333D01*
X156138571Y-96908809D01*
X156090952Y-97004047D01*
X156043333Y-97051666D01*
X155948095Y-97099285D01*
X155852857Y-97099285D01*
X155757619Y-97051666D01*
X155710000Y-97004047D01*
X155662380Y-96908809D01*
X155662380Y-96670714D01*
X155710000Y-96527857D01*
X156662380Y-96099285D02*
X155662380Y-96099285D01*
X155662380Y-95861190D01*
X155710000Y-95718333D01*
X155805238Y-95623095D01*
X155900476Y-95575476D01*
X156090952Y-95527857D01*
X156233809Y-95527857D01*
X156424285Y-95575476D01*
X156519523Y-95623095D01*
X156614761Y-95718333D01*
X156662380Y-95861190D01*
X156662380Y-96099285D01*
X156376666Y-95146904D02*
X156376666Y-94670714D01*
X156662380Y-95242142D02*
X155662380Y-94908809D01*
X156662380Y-94575476D01*
X156662380Y-91741428D02*
X155662380Y-91741428D01*
X156376666Y-91408095D01*
X155662380Y-91074761D01*
X156662380Y-91074761D01*
X155662380Y-90408095D02*
X155662380Y-90217619D01*
X155710000Y-90122380D01*
X155805238Y-90027142D01*
X155995714Y-89979523D01*
X156329047Y-89979523D01*
X156519523Y-90027142D01*
X156614761Y-90122380D01*
X156662380Y-90217619D01*
X156662380Y-90408095D01*
X156614761Y-90503333D01*
X156519523Y-90598571D01*
X156329047Y-90646190D01*
X155995714Y-90646190D01*
X155805238Y-90598571D01*
X155710000Y-90503333D01*
X155662380Y-90408095D01*
X156614761Y-89598571D02*
X156662380Y-89455714D01*
X156662380Y-89217619D01*
X156614761Y-89122380D01*
X156567142Y-89074761D01*
X156471904Y-89027142D01*
X156376666Y-89027142D01*
X156281428Y-89074761D01*
X156233809Y-89122380D01*
X156186190Y-89217619D01*
X156138571Y-89408095D01*
X156090952Y-89503333D01*
X156043333Y-89550952D01*
X155948095Y-89598571D01*
X155852857Y-89598571D01*
X155757619Y-89550952D01*
X155710000Y-89503333D01*
X155662380Y-89408095D01*
X155662380Y-89170000D01*
X155710000Y-89027142D01*
X156662380Y-88598571D02*
X155662380Y-88598571D01*
X156662380Y-87296428D02*
X155662380Y-87296428D01*
X156376666Y-86963095D01*
X155662380Y-86629761D01*
X156662380Y-86629761D01*
X156662380Y-86153571D02*
X155662380Y-86153571D01*
X156614761Y-85725000D02*
X156662380Y-85582142D01*
X156662380Y-85344047D01*
X156614761Y-85248809D01*
X156567142Y-85201190D01*
X156471904Y-85153571D01*
X156376666Y-85153571D01*
X156281428Y-85201190D01*
X156233809Y-85248809D01*
X156186190Y-85344047D01*
X156138571Y-85534523D01*
X156090952Y-85629761D01*
X156043333Y-85677380D01*
X155948095Y-85725000D01*
X155852857Y-85725000D01*
X155757619Y-85677380D01*
X155710000Y-85629761D01*
X155662380Y-85534523D01*
X155662380Y-85296428D01*
X155710000Y-85153571D01*
X155662380Y-84534523D02*
X155662380Y-84344047D01*
X155710000Y-84248809D01*
X155805238Y-84153571D01*
X155995714Y-84105952D01*
X156329047Y-84105952D01*
X156519523Y-84153571D01*
X156614761Y-84248809D01*
X156662380Y-84344047D01*
X156662380Y-84534523D01*
X156614761Y-84629761D01*
X156519523Y-84725000D01*
X156329047Y-84772619D01*
X155995714Y-84772619D01*
X155805238Y-84725000D01*
X155710000Y-84629761D01*
X155662380Y-84534523D01*
X156614761Y-83200714D02*
X156662380Y-83057857D01*
X156662380Y-82819761D01*
X156614761Y-82724523D01*
X156567142Y-82676904D01*
X156471904Y-82629285D01*
X156376666Y-82629285D01*
X156281428Y-82676904D01*
X156233809Y-82724523D01*
X156186190Y-82819761D01*
X156138571Y-83010238D01*
X156090952Y-83105476D01*
X156043333Y-83153095D01*
X155948095Y-83200714D01*
X155852857Y-83200714D01*
X155757619Y-83153095D01*
X155710000Y-83105476D01*
X155662380Y-83010238D01*
X155662380Y-82772142D01*
X155710000Y-82629285D01*
X156567142Y-81629285D02*
X156614761Y-81676904D01*
X156662380Y-81819761D01*
X156662380Y-81915000D01*
X156614761Y-82057857D01*
X156519523Y-82153095D01*
X156424285Y-82200714D01*
X156233809Y-82248333D01*
X156090952Y-82248333D01*
X155900476Y-82200714D01*
X155805238Y-82153095D01*
X155710000Y-82057857D01*
X155662380Y-81915000D01*
X155662380Y-81819761D01*
X155710000Y-81676904D01*
X155757619Y-81629285D01*
X156662380Y-81200714D02*
X155662380Y-81200714D01*
X156662380Y-80629285D02*
X156090952Y-81057857D01*
X155662380Y-80629285D02*
X156233809Y-81200714D01*
X156662380Y-79105000D02*
X156186190Y-79438333D01*
X156662380Y-79676428D02*
X155662380Y-79676428D01*
X155662380Y-79295476D01*
X155710000Y-79200238D01*
X155757619Y-79152619D01*
X155852857Y-79105000D01*
X155995714Y-79105000D01*
X156090952Y-79152619D01*
X156138571Y-79200238D01*
X156186190Y-79295476D01*
X156186190Y-79676428D01*
X156614761Y-78724047D02*
X156662380Y-78581190D01*
X156662380Y-78343095D01*
X156614761Y-78247857D01*
X156567142Y-78200238D01*
X156471904Y-78152619D01*
X156376666Y-78152619D01*
X156281428Y-78200238D01*
X156233809Y-78247857D01*
X156186190Y-78343095D01*
X156138571Y-78533571D01*
X156090952Y-78628809D01*
X156043333Y-78676428D01*
X155948095Y-78724047D01*
X155852857Y-78724047D01*
X155757619Y-78676428D01*
X155710000Y-78628809D01*
X155662380Y-78533571D01*
X155662380Y-78295476D01*
X155710000Y-78152619D01*
X156138571Y-77724047D02*
X156138571Y-77390714D01*
X156662380Y-77247857D02*
X156662380Y-77724047D01*
X155662380Y-77724047D01*
X155662380Y-77247857D01*
X155662380Y-76962142D02*
X155662380Y-76390714D01*
X156662380Y-76676428D02*
X155662380Y-76676428D01*
X155710000Y-73151904D02*
X155662380Y-73247142D01*
X155662380Y-73390000D01*
X155710000Y-73532857D01*
X155805238Y-73628095D01*
X155900476Y-73675714D01*
X156090952Y-73723333D01*
X156233809Y-73723333D01*
X156424285Y-73675714D01*
X156519523Y-73628095D01*
X156614761Y-73532857D01*
X156662380Y-73390000D01*
X156662380Y-73294761D01*
X156614761Y-73151904D01*
X156567142Y-73104285D01*
X156233809Y-73104285D01*
X156233809Y-73294761D01*
X156662380Y-72675714D02*
X155662380Y-72675714D01*
X156662380Y-72104285D01*
X155662380Y-72104285D01*
X156662380Y-71628095D02*
X155662380Y-71628095D01*
X155662380Y-71390000D01*
X155710000Y-71247142D01*
X155805238Y-71151904D01*
X155900476Y-71104285D01*
X156090952Y-71056666D01*
X156233809Y-71056666D01*
X156424285Y-71104285D01*
X156519523Y-71151904D01*
X156614761Y-71247142D01*
X156662380Y-71390000D01*
X156662380Y-71628095D01*
X156281428Y-69706904D02*
X156281428Y-68945000D01*
X156662380Y-69325952D02*
X155900476Y-69325952D01*
X155662380Y-68564047D02*
X155662380Y-67945000D01*
X156043333Y-68278333D01*
X156043333Y-68135476D01*
X156090952Y-68040238D01*
X156138571Y-67992619D01*
X156233809Y-67945000D01*
X156471904Y-67945000D01*
X156567142Y-67992619D01*
X156614761Y-68040238D01*
X156662380Y-68135476D01*
X156662380Y-68421190D01*
X156614761Y-68516428D01*
X156567142Y-68564047D01*
X155662380Y-67659285D02*
X156662380Y-67325952D01*
X155662380Y-66992619D01*
X155662380Y-66754523D02*
X155662380Y-66135476D01*
X156043333Y-66468809D01*
X156043333Y-66325952D01*
X156090952Y-66230714D01*
X156138571Y-66183095D01*
X156233809Y-66135476D01*
X156471904Y-66135476D01*
X156567142Y-66183095D01*
X156614761Y-66230714D01*
X156662380Y-66325952D01*
X156662380Y-66611666D01*
X156614761Y-66706904D01*
X156567142Y-66754523D01*
X156138571Y-64444523D02*
X156186190Y-64301666D01*
X156233809Y-64254047D01*
X156329047Y-64206428D01*
X156471904Y-64206428D01*
X156567142Y-64254047D01*
X156614761Y-64301666D01*
X156662380Y-64396904D01*
X156662380Y-64777857D01*
X155662380Y-64777857D01*
X155662380Y-64444523D01*
X155710000Y-64349285D01*
X155757619Y-64301666D01*
X155852857Y-64254047D01*
X155948095Y-64254047D01*
X156043333Y-64301666D01*
X156090952Y-64349285D01*
X156138571Y-64444523D01*
X156138571Y-64777857D01*
X155662380Y-63920714D02*
X155662380Y-63349285D01*
X156662380Y-63635000D02*
X155662380Y-63635000D01*
X155710000Y-61086904D02*
X155662380Y-61182142D01*
X155662380Y-61325000D01*
X155710000Y-61467857D01*
X155805238Y-61563095D01*
X155900476Y-61610714D01*
X156090952Y-61658333D01*
X156233809Y-61658333D01*
X156424285Y-61610714D01*
X156519523Y-61563095D01*
X156614761Y-61467857D01*
X156662380Y-61325000D01*
X156662380Y-61229761D01*
X156614761Y-61086904D01*
X156567142Y-61039285D01*
X156233809Y-61039285D01*
X156233809Y-61229761D01*
X156662380Y-60610714D02*
X155662380Y-60610714D01*
X156662380Y-60039285D01*
X155662380Y-60039285D01*
X156662380Y-59563095D02*
X155662380Y-59563095D01*
X155662380Y-59325000D01*
X155710000Y-59182142D01*
X155805238Y-59086904D01*
X155900476Y-59039285D01*
X156090952Y-58991666D01*
X156233809Y-58991666D01*
X156424285Y-59039285D01*
X156519523Y-59086904D01*
X156614761Y-59182142D01*
X156662380Y-59325000D01*
X156662380Y-59563095D01*
X101584285Y-189301428D02*
X102346190Y-189301428D01*
X101965238Y-189682380D02*
X101965238Y-188920476D01*
X103298571Y-188682380D02*
X102822380Y-188682380D01*
X102774761Y-189158571D01*
X102822380Y-189110952D01*
X102917619Y-189063333D01*
X103155714Y-189063333D01*
X103250952Y-189110952D01*
X103298571Y-189158571D01*
X103346190Y-189253809D01*
X103346190Y-189491904D01*
X103298571Y-189587142D01*
X103250952Y-189634761D01*
X103155714Y-189682380D01*
X102917619Y-189682380D01*
X102822380Y-189634761D01*
X102774761Y-189587142D01*
X103631904Y-188682380D02*
X103965238Y-189682380D01*
X104298571Y-188682380D01*
X109823333Y-190952380D02*
X109490000Y-190476190D01*
X109251904Y-190952380D02*
X109251904Y-189952380D01*
X109632857Y-189952380D01*
X109728095Y-190000000D01*
X109775714Y-190047619D01*
X109823333Y-190142857D01*
X109823333Y-190285714D01*
X109775714Y-190380952D01*
X109728095Y-190428571D01*
X109632857Y-190476190D01*
X109251904Y-190476190D01*
X110156666Y-189952380D02*
X110823333Y-190952380D01*
X110823333Y-189952380D02*
X110156666Y-190952380D01*
X111204285Y-190952380D02*
X111204285Y-189952380D01*
X111442380Y-189952380D01*
X111585238Y-190000000D01*
X111680476Y-190095238D01*
X111728095Y-190190476D01*
X111775714Y-190380952D01*
X111775714Y-190523809D01*
X111728095Y-190714285D01*
X111680476Y-190809523D01*
X111585238Y-190904761D01*
X111442380Y-190952380D01*
X111204285Y-190952380D01*
X106688095Y-188682380D02*
X107259523Y-188682380D01*
X106973809Y-189682380D02*
X106973809Y-188682380D01*
X107497619Y-188682380D02*
X108164285Y-189682380D01*
X108164285Y-188682380D02*
X107497619Y-189682380D01*
X108545238Y-189682380D02*
X108545238Y-188682380D01*
X108783333Y-188682380D01*
X108926190Y-188730000D01*
X109021428Y-188825238D01*
X109069047Y-188920476D01*
X109116666Y-189110952D01*
X109116666Y-189253809D01*
X109069047Y-189444285D01*
X109021428Y-189539523D01*
X108926190Y-189634761D01*
X108783333Y-189682380D01*
X108545238Y-189682380D01*
X104648095Y-190000000D02*
X104552857Y-189952380D01*
X104410000Y-189952380D01*
X104267142Y-190000000D01*
X104171904Y-190095238D01*
X104124285Y-190190476D01*
X104076666Y-190380952D01*
X104076666Y-190523809D01*
X104124285Y-190714285D01*
X104171904Y-190809523D01*
X104267142Y-190904761D01*
X104410000Y-190952380D01*
X104505238Y-190952380D01*
X104648095Y-190904761D01*
X104695714Y-190857142D01*
X104695714Y-190523809D01*
X104505238Y-190523809D01*
X105124285Y-190952380D02*
X105124285Y-189952380D01*
X105695714Y-190952380D01*
X105695714Y-189952380D01*
X106171904Y-190952380D02*
X106171904Y-189952380D01*
X106410000Y-189952380D01*
X106552857Y-190000000D01*
X106648095Y-190095238D01*
X106695714Y-190190476D01*
X106743333Y-190380952D01*
X106743333Y-190523809D01*
X106695714Y-190714285D01*
X106648095Y-190809523D01*
X106552857Y-190904761D01*
X106410000Y-190952380D01*
X106171904Y-190952380D01*
X49077619Y-168941904D02*
X50077619Y-168941904D01*
X50077619Y-169322857D01*
X50030000Y-169418095D01*
X49982380Y-169465714D01*
X49887142Y-169513333D01*
X49744285Y-169513333D01*
X49649047Y-169465714D01*
X49601428Y-169418095D01*
X49553809Y-169322857D01*
X49553809Y-168941904D01*
X50030000Y-170465714D02*
X50077619Y-170370476D01*
X50077619Y-170227619D01*
X50030000Y-170084761D01*
X49934761Y-169989523D01*
X49839523Y-169941904D01*
X49649047Y-169894285D01*
X49506190Y-169894285D01*
X49315714Y-169941904D01*
X49220476Y-169989523D01*
X49125238Y-170084761D01*
X49077619Y-170227619D01*
X49077619Y-170322857D01*
X49125238Y-170465714D01*
X49172857Y-170513333D01*
X49506190Y-170513333D01*
X49506190Y-170322857D01*
X50077619Y-171132380D02*
X50077619Y-171227619D01*
X50030000Y-171322857D01*
X49982380Y-171370476D01*
X49887142Y-171418095D01*
X49696666Y-171465714D01*
X49458571Y-171465714D01*
X49268095Y-171418095D01*
X49172857Y-171370476D01*
X49125238Y-171322857D01*
X49077619Y-171227619D01*
X49077619Y-171132380D01*
X49125238Y-171037142D01*
X49172857Y-170989523D01*
X49268095Y-170941904D01*
X49458571Y-170894285D01*
X49696666Y-170894285D01*
X49887142Y-170941904D01*
X49982380Y-170989523D01*
X50030000Y-171037142D01*
X50077619Y-171132380D01*
X49077619Y-165203333D02*
X50077619Y-165203333D01*
X50077619Y-165584285D01*
X50030000Y-165679523D01*
X49982380Y-165727142D01*
X49887142Y-165774761D01*
X49744285Y-165774761D01*
X49649047Y-165727142D01*
X49601428Y-165679523D01*
X49553809Y-165584285D01*
X49553809Y-165203333D01*
X49601428Y-166536666D02*
X49601428Y-166203333D01*
X49077619Y-166203333D02*
X50077619Y-166203333D01*
X50077619Y-166679523D01*
X49077619Y-167108095D02*
X49077619Y-167298571D01*
X49125238Y-167393809D01*
X49172857Y-167441428D01*
X49315714Y-167536666D01*
X49506190Y-167584285D01*
X49887142Y-167584285D01*
X49982380Y-167536666D01*
X50030000Y-167489047D01*
X50077619Y-167393809D01*
X50077619Y-167203333D01*
X50030000Y-167108095D01*
X49982380Y-167060476D01*
X49887142Y-167012857D01*
X49649047Y-167012857D01*
X49553809Y-167060476D01*
X49506190Y-167108095D01*
X49458571Y-167203333D01*
X49458571Y-167393809D01*
X49506190Y-167489047D01*
X49553809Y-167536666D01*
X49649047Y-167584285D01*
X49077619Y-158781904D02*
X50077619Y-158781904D01*
X50077619Y-159162857D01*
X50030000Y-159258095D01*
X49982380Y-159305714D01*
X49887142Y-159353333D01*
X49744285Y-159353333D01*
X49649047Y-159305714D01*
X49601428Y-159258095D01*
X49553809Y-159162857D01*
X49553809Y-158781904D01*
X49077619Y-159781904D02*
X50077619Y-159781904D01*
X50077619Y-160020000D01*
X50030000Y-160162857D01*
X49934761Y-160258095D01*
X49839523Y-160305714D01*
X49649047Y-160353333D01*
X49506190Y-160353333D01*
X49315714Y-160305714D01*
X49220476Y-160258095D01*
X49125238Y-160162857D01*
X49077619Y-160020000D01*
X49077619Y-159781904D01*
X49077619Y-161305714D02*
X49077619Y-160734285D01*
X49077619Y-161020000D02*
X50077619Y-161020000D01*
X49934761Y-160924761D01*
X49839523Y-160829523D01*
X49791904Y-160734285D01*
X49077619Y-155019523D02*
X50077619Y-155019523D01*
X50077619Y-155400476D01*
X50030000Y-155495714D01*
X49982380Y-155543333D01*
X49887142Y-155590952D01*
X49744285Y-155590952D01*
X49649047Y-155543333D01*
X49601428Y-155495714D01*
X49553809Y-155400476D01*
X49553809Y-155019523D01*
X49601428Y-156019523D02*
X49601428Y-156352857D01*
X49077619Y-156495714D02*
X49077619Y-156019523D01*
X50077619Y-156019523D01*
X50077619Y-156495714D01*
X50077619Y-156829047D02*
X50077619Y-157495714D01*
X49077619Y-157067142D01*
X49077619Y-151161904D02*
X50077619Y-151161904D01*
X50077619Y-151542857D01*
X50030000Y-151638095D01*
X49982380Y-151685714D01*
X49887142Y-151733333D01*
X49744285Y-151733333D01*
X49649047Y-151685714D01*
X49601428Y-151638095D01*
X49553809Y-151542857D01*
X49553809Y-151161904D01*
X49077619Y-152161904D02*
X50077619Y-152161904D01*
X50077619Y-152400000D01*
X50030000Y-152542857D01*
X49934761Y-152638095D01*
X49839523Y-152685714D01*
X49649047Y-152733333D01*
X49506190Y-152733333D01*
X49315714Y-152685714D01*
X49220476Y-152638095D01*
X49125238Y-152542857D01*
X49077619Y-152400000D01*
X49077619Y-152161904D01*
X50077619Y-153352380D02*
X50077619Y-153447619D01*
X50030000Y-153542857D01*
X49982380Y-153590476D01*
X49887142Y-153638095D01*
X49696666Y-153685714D01*
X49458571Y-153685714D01*
X49268095Y-153638095D01*
X49172857Y-153590476D01*
X49125238Y-153542857D01*
X49077619Y-153447619D01*
X49077619Y-153352380D01*
X49125238Y-153257142D01*
X49172857Y-153209523D01*
X49268095Y-153161904D01*
X49458571Y-153114285D01*
X49696666Y-153114285D01*
X49887142Y-153161904D01*
X49982380Y-153209523D01*
X50030000Y-153257142D01*
X50077619Y-153352380D01*
X50030000Y-147828095D02*
X50077619Y-147732857D01*
X50077619Y-147590000D01*
X50030000Y-147447142D01*
X49934761Y-147351904D01*
X49839523Y-147304285D01*
X49649047Y-147256666D01*
X49506190Y-147256666D01*
X49315714Y-147304285D01*
X49220476Y-147351904D01*
X49125238Y-147447142D01*
X49077619Y-147590000D01*
X49077619Y-147685238D01*
X49125238Y-147828095D01*
X49172857Y-147875714D01*
X49506190Y-147875714D01*
X49506190Y-147685238D01*
X49077619Y-148304285D02*
X50077619Y-148304285D01*
X49077619Y-148875714D01*
X50077619Y-148875714D01*
X49077619Y-149351904D02*
X50077619Y-149351904D01*
X50077619Y-149590000D01*
X50030000Y-149732857D01*
X49934761Y-149828095D01*
X49839523Y-149875714D01*
X49649047Y-149923333D01*
X49506190Y-149923333D01*
X49315714Y-149875714D01*
X49220476Y-149828095D01*
X49125238Y-149732857D01*
X49077619Y-149590000D01*
X49077619Y-149351904D01*
X49077619Y-141428452D02*
X50077619Y-141428452D01*
X50077619Y-141809404D01*
X50030000Y-141904642D01*
X49982380Y-141952261D01*
X49887142Y-141999880D01*
X49744285Y-141999880D01*
X49649047Y-141952261D01*
X49601428Y-141904642D01*
X49553809Y-141809404D01*
X49553809Y-141428452D01*
X49601428Y-142428452D02*
X49601428Y-142761785D01*
X49077619Y-142904642D02*
X49077619Y-142428452D01*
X50077619Y-142428452D01*
X50077619Y-142904642D01*
X50077619Y-143237976D02*
X50077619Y-143857023D01*
X49696666Y-143523690D01*
X49696666Y-143666547D01*
X49649047Y-143761785D01*
X49601428Y-143809404D01*
X49506190Y-143857023D01*
X49268095Y-143857023D01*
X49172857Y-143809404D01*
X49125238Y-143761785D01*
X49077619Y-143666547D01*
X49077619Y-143380833D01*
X49125238Y-143285595D01*
X49172857Y-143237976D01*
X49077619Y-137263333D02*
X50077619Y-137263333D01*
X50077619Y-137644285D01*
X50030000Y-137739523D01*
X49982380Y-137787142D01*
X49887142Y-137834761D01*
X49744285Y-137834761D01*
X49649047Y-137787142D01*
X49601428Y-137739523D01*
X49553809Y-137644285D01*
X49553809Y-137263333D01*
X49601428Y-138596666D02*
X49601428Y-138263333D01*
X49077619Y-138263333D02*
X50077619Y-138263333D01*
X50077619Y-138739523D01*
X50077619Y-139310952D02*
X50077619Y-139406190D01*
X50030000Y-139501428D01*
X49982380Y-139549047D01*
X49887142Y-139596666D01*
X49696666Y-139644285D01*
X49458571Y-139644285D01*
X49268095Y-139596666D01*
X49172857Y-139549047D01*
X49125238Y-139501428D01*
X49077619Y-139406190D01*
X49077619Y-139310952D01*
X49125238Y-139215714D01*
X49172857Y-139168095D01*
X49268095Y-139120476D01*
X49458571Y-139072857D01*
X49696666Y-139072857D01*
X49887142Y-139120476D01*
X49982380Y-139168095D01*
X50030000Y-139215714D01*
X50077619Y-139310952D01*
X49077619Y-133429523D02*
X50077619Y-133429523D01*
X50077619Y-133810476D01*
X50030000Y-133905714D01*
X49982380Y-133953333D01*
X49887142Y-134000952D01*
X49744285Y-134000952D01*
X49649047Y-133953333D01*
X49601428Y-133905714D01*
X49553809Y-133810476D01*
X49553809Y-133429523D01*
X49601428Y-134429523D02*
X49601428Y-134762857D01*
X49077619Y-134905714D02*
X49077619Y-134429523D01*
X50077619Y-134429523D01*
X50077619Y-134905714D01*
X50077619Y-135762857D02*
X50077619Y-135572380D01*
X50030000Y-135477142D01*
X49982380Y-135429523D01*
X49839523Y-135334285D01*
X49649047Y-135286666D01*
X49268095Y-135286666D01*
X49172857Y-135334285D01*
X49125238Y-135381904D01*
X49077619Y-135477142D01*
X49077619Y-135667619D01*
X49125238Y-135762857D01*
X49172857Y-135810476D01*
X49268095Y-135858095D01*
X49506190Y-135858095D01*
X49601428Y-135810476D01*
X49649047Y-135762857D01*
X49696666Y-135667619D01*
X49696666Y-135477142D01*
X49649047Y-135381904D01*
X49601428Y-135334285D01*
X49506190Y-135286666D01*
X49077619Y-129643333D02*
X50077619Y-129643333D01*
X50077619Y-130024285D01*
X50030000Y-130119523D01*
X49982380Y-130167142D01*
X49887142Y-130214761D01*
X49744285Y-130214761D01*
X49649047Y-130167142D01*
X49601428Y-130119523D01*
X49553809Y-130024285D01*
X49553809Y-129643333D01*
X49601428Y-130976666D02*
X49601428Y-130643333D01*
X49077619Y-130643333D02*
X50077619Y-130643333D01*
X50077619Y-131119523D01*
X49077619Y-132024285D02*
X49077619Y-131452857D01*
X49077619Y-131738571D02*
X50077619Y-131738571D01*
X49934761Y-131643333D01*
X49839523Y-131548095D01*
X49791904Y-131452857D01*
X49077619Y-124539523D02*
X50077619Y-124539523D01*
X50077619Y-124920476D01*
X50030000Y-125015714D01*
X49982380Y-125063333D01*
X49887142Y-125110952D01*
X49744285Y-125110952D01*
X49649047Y-125063333D01*
X49601428Y-125015714D01*
X49553809Y-124920476D01*
X49553809Y-124539523D01*
X49601428Y-125539523D02*
X49601428Y-125872857D01*
X49077619Y-126015714D02*
X49077619Y-125539523D01*
X50077619Y-125539523D01*
X50077619Y-126015714D01*
X50077619Y-126920476D02*
X50077619Y-126444285D01*
X49601428Y-126396666D01*
X49649047Y-126444285D01*
X49696666Y-126539523D01*
X49696666Y-126777619D01*
X49649047Y-126872857D01*
X49601428Y-126920476D01*
X49506190Y-126968095D01*
X49268095Y-126968095D01*
X49172857Y-126920476D01*
X49125238Y-126872857D01*
X49077619Y-126777619D01*
X49077619Y-126539523D01*
X49125238Y-126444285D01*
X49172857Y-126396666D01*
X49077619Y-119483333D02*
X50077619Y-119483333D01*
X50077619Y-119864285D01*
X50030000Y-119959523D01*
X49982380Y-120007142D01*
X49887142Y-120054761D01*
X49744285Y-120054761D01*
X49649047Y-120007142D01*
X49601428Y-119959523D01*
X49553809Y-119864285D01*
X49553809Y-119483333D01*
X49601428Y-120816666D02*
X49601428Y-120483333D01*
X49077619Y-120483333D02*
X50077619Y-120483333D01*
X50077619Y-120959523D01*
X49982380Y-121292857D02*
X50030000Y-121340476D01*
X50077619Y-121435714D01*
X50077619Y-121673809D01*
X50030000Y-121769047D01*
X49982380Y-121816666D01*
X49887142Y-121864285D01*
X49791904Y-121864285D01*
X49649047Y-121816666D01*
X49077619Y-121245238D01*
X49077619Y-121864285D01*
X49077619Y-115649523D02*
X50077619Y-115649523D01*
X50077619Y-116030476D01*
X50030000Y-116125714D01*
X49982380Y-116173333D01*
X49887142Y-116220952D01*
X49744285Y-116220952D01*
X49649047Y-116173333D01*
X49601428Y-116125714D01*
X49553809Y-116030476D01*
X49553809Y-115649523D01*
X49601428Y-116649523D02*
X49601428Y-116982857D01*
X49077619Y-117125714D02*
X49077619Y-116649523D01*
X50077619Y-116649523D01*
X50077619Y-117125714D01*
X49744285Y-117982857D02*
X49077619Y-117982857D01*
X50125238Y-117744761D02*
X49410952Y-117506666D01*
X49410952Y-118125714D01*
X49077619Y-111863333D02*
X50077619Y-111863333D01*
X50077619Y-112244285D01*
X50030000Y-112339523D01*
X49982380Y-112387142D01*
X49887142Y-112434761D01*
X49744285Y-112434761D01*
X49649047Y-112387142D01*
X49601428Y-112339523D01*
X49553809Y-112244285D01*
X49553809Y-111863333D01*
X49363333Y-112815714D02*
X49363333Y-113291904D01*
X49077619Y-112720476D02*
X50077619Y-113053809D01*
X49077619Y-113387142D01*
X50077619Y-113625238D02*
X50077619Y-114291904D01*
X49077619Y-113863333D01*
X49125238Y-105918095D02*
X49077619Y-106060952D01*
X49077619Y-106299047D01*
X49125238Y-106394285D01*
X49172857Y-106441904D01*
X49268095Y-106489523D01*
X49363333Y-106489523D01*
X49458571Y-106441904D01*
X49506190Y-106394285D01*
X49553809Y-106299047D01*
X49601428Y-106108571D01*
X49649047Y-106013333D01*
X49696666Y-105965714D01*
X49791904Y-105918095D01*
X49887142Y-105918095D01*
X49982380Y-105965714D01*
X50030000Y-106013333D01*
X50077619Y-106108571D01*
X50077619Y-106346666D01*
X50030000Y-106489523D01*
X49649047Y-107060952D02*
X49696666Y-106965714D01*
X49744285Y-106918095D01*
X49839523Y-106870476D01*
X49887142Y-106870476D01*
X49982380Y-106918095D01*
X50030000Y-106965714D01*
X50077619Y-107060952D01*
X50077619Y-107251428D01*
X50030000Y-107346666D01*
X49982380Y-107394285D01*
X49887142Y-107441904D01*
X49839523Y-107441904D01*
X49744285Y-107394285D01*
X49696666Y-107346666D01*
X49649047Y-107251428D01*
X49649047Y-107060952D01*
X49601428Y-106965714D01*
X49553809Y-106918095D01*
X49458571Y-106870476D01*
X49268095Y-106870476D01*
X49172857Y-106918095D01*
X49125238Y-106965714D01*
X49077619Y-107060952D01*
X49077619Y-107251428D01*
X49125238Y-107346666D01*
X49172857Y-107394285D01*
X49268095Y-107441904D01*
X49458571Y-107441904D01*
X49553809Y-107394285D01*
X49601428Y-107346666D01*
X49649047Y-107251428D01*
X49125238Y-102108095D02*
X49077619Y-102250952D01*
X49077619Y-102489047D01*
X49125238Y-102584285D01*
X49172857Y-102631904D01*
X49268095Y-102679523D01*
X49363333Y-102679523D01*
X49458571Y-102631904D01*
X49506190Y-102584285D01*
X49553809Y-102489047D01*
X49601428Y-102298571D01*
X49649047Y-102203333D01*
X49696666Y-102155714D01*
X49791904Y-102108095D01*
X49887142Y-102108095D01*
X49982380Y-102155714D01*
X50030000Y-102203333D01*
X50077619Y-102298571D01*
X50077619Y-102536666D01*
X50030000Y-102679523D01*
X50077619Y-103536666D02*
X50077619Y-103346190D01*
X50030000Y-103250952D01*
X49982380Y-103203333D01*
X49839523Y-103108095D01*
X49649047Y-103060476D01*
X49268095Y-103060476D01*
X49172857Y-103108095D01*
X49125238Y-103155714D01*
X49077619Y-103250952D01*
X49077619Y-103441428D01*
X49125238Y-103536666D01*
X49172857Y-103584285D01*
X49268095Y-103631904D01*
X49506190Y-103631904D01*
X49601428Y-103584285D01*
X49649047Y-103536666D01*
X49696666Y-103441428D01*
X49696666Y-103250952D01*
X49649047Y-103155714D01*
X49601428Y-103108095D01*
X49506190Y-103060476D01*
X49125238Y-98298095D02*
X49077619Y-98440952D01*
X49077619Y-98679047D01*
X49125238Y-98774285D01*
X49172857Y-98821904D01*
X49268095Y-98869523D01*
X49363333Y-98869523D01*
X49458571Y-98821904D01*
X49506190Y-98774285D01*
X49553809Y-98679047D01*
X49601428Y-98488571D01*
X49649047Y-98393333D01*
X49696666Y-98345714D01*
X49791904Y-98298095D01*
X49887142Y-98298095D01*
X49982380Y-98345714D01*
X50030000Y-98393333D01*
X50077619Y-98488571D01*
X50077619Y-98726666D01*
X50030000Y-98869523D01*
X50077619Y-99774285D02*
X50077619Y-99298095D01*
X49601428Y-99250476D01*
X49649047Y-99298095D01*
X49696666Y-99393333D01*
X49696666Y-99631428D01*
X49649047Y-99726666D01*
X49601428Y-99774285D01*
X49506190Y-99821904D01*
X49268095Y-99821904D01*
X49172857Y-99774285D01*
X49125238Y-99726666D01*
X49077619Y-99631428D01*
X49077619Y-99393333D01*
X49125238Y-99298095D01*
X49172857Y-99250476D01*
X49125238Y-94488095D02*
X49077619Y-94630952D01*
X49077619Y-94869047D01*
X49125238Y-94964285D01*
X49172857Y-95011904D01*
X49268095Y-95059523D01*
X49363333Y-95059523D01*
X49458571Y-95011904D01*
X49506190Y-94964285D01*
X49553809Y-94869047D01*
X49601428Y-94678571D01*
X49649047Y-94583333D01*
X49696666Y-94535714D01*
X49791904Y-94488095D01*
X49887142Y-94488095D01*
X49982380Y-94535714D01*
X50030000Y-94583333D01*
X50077619Y-94678571D01*
X50077619Y-94916666D01*
X50030000Y-95059523D01*
X49744285Y-95916666D02*
X49077619Y-95916666D01*
X50125238Y-95678571D02*
X49410952Y-95440476D01*
X49410952Y-96059523D01*
X49125238Y-89408095D02*
X49077619Y-89550952D01*
X49077619Y-89789047D01*
X49125238Y-89884285D01*
X49172857Y-89931904D01*
X49268095Y-89979523D01*
X49363333Y-89979523D01*
X49458571Y-89931904D01*
X49506190Y-89884285D01*
X49553809Y-89789047D01*
X49601428Y-89598571D01*
X49649047Y-89503333D01*
X49696666Y-89455714D01*
X49791904Y-89408095D01*
X49887142Y-89408095D01*
X49982380Y-89455714D01*
X50030000Y-89503333D01*
X50077619Y-89598571D01*
X50077619Y-89836666D01*
X50030000Y-89979523D01*
X50077619Y-90312857D02*
X50077619Y-90931904D01*
X49696666Y-90598571D01*
X49696666Y-90741428D01*
X49649047Y-90836666D01*
X49601428Y-90884285D01*
X49506190Y-90931904D01*
X49268095Y-90931904D01*
X49172857Y-90884285D01*
X49125238Y-90836666D01*
X49077619Y-90741428D01*
X49077619Y-90455714D01*
X49125238Y-90360476D01*
X49172857Y-90312857D01*
X49125238Y-86868095D02*
X49077619Y-87010952D01*
X49077619Y-87249047D01*
X49125238Y-87344285D01*
X49172857Y-87391904D01*
X49268095Y-87439523D01*
X49363333Y-87439523D01*
X49458571Y-87391904D01*
X49506190Y-87344285D01*
X49553809Y-87249047D01*
X49601428Y-87058571D01*
X49649047Y-86963333D01*
X49696666Y-86915714D01*
X49791904Y-86868095D01*
X49887142Y-86868095D01*
X49982380Y-86915714D01*
X50030000Y-86963333D01*
X50077619Y-87058571D01*
X50077619Y-87296666D01*
X50030000Y-87439523D01*
X49077619Y-88391904D02*
X49077619Y-87820476D01*
X49077619Y-88106190D02*
X50077619Y-88106190D01*
X49934761Y-88010952D01*
X49839523Y-87915714D01*
X49791904Y-87820476D01*
X49077619Y-80478571D02*
X49077619Y-80002380D01*
X50077619Y-80002380D01*
X49601428Y-80811904D02*
X49601428Y-81145238D01*
X49077619Y-81288095D02*
X49077619Y-80811904D01*
X50077619Y-80811904D01*
X50077619Y-81288095D01*
X49077619Y-81716666D02*
X50077619Y-81716666D01*
X50077619Y-81954761D01*
X50030000Y-82097619D01*
X49934761Y-82192857D01*
X49839523Y-82240476D01*
X49649047Y-82288095D01*
X49506190Y-82288095D01*
X49315714Y-82240476D01*
X49220476Y-82192857D01*
X49125238Y-82097619D01*
X49077619Y-81954761D01*
X49077619Y-81716666D01*
X48982380Y-82478571D02*
X48982380Y-83240476D01*
X50077619Y-83669047D02*
X50077619Y-83859523D01*
X50030000Y-83954761D01*
X49934761Y-84050000D01*
X49744285Y-84097619D01*
X49410952Y-84097619D01*
X49220476Y-84050000D01*
X49125238Y-83954761D01*
X49077619Y-83859523D01*
X49077619Y-83669047D01*
X49125238Y-83573809D01*
X49220476Y-83478571D01*
X49410952Y-83430952D01*
X49744285Y-83430952D01*
X49934761Y-83478571D01*
X50030000Y-83573809D01*
X50077619Y-83669047D01*
X49077619Y-84526190D02*
X50077619Y-84526190D01*
X49077619Y-85097619D01*
X50077619Y-85097619D01*
X50077619Y-76136666D02*
X49077619Y-76470000D01*
X50077619Y-76803333D01*
X49172857Y-77708095D02*
X49125238Y-77660476D01*
X49077619Y-77517619D01*
X49077619Y-77422380D01*
X49125238Y-77279523D01*
X49220476Y-77184285D01*
X49315714Y-77136666D01*
X49506190Y-77089047D01*
X49649047Y-77089047D01*
X49839523Y-77136666D01*
X49934761Y-77184285D01*
X50030000Y-77279523D01*
X50077619Y-77422380D01*
X50077619Y-77517619D01*
X50030000Y-77660476D01*
X49982380Y-77708095D01*
X49172857Y-78708095D02*
X49125238Y-78660476D01*
X49077619Y-78517619D01*
X49077619Y-78422380D01*
X49125238Y-78279523D01*
X49220476Y-78184285D01*
X49315714Y-78136666D01*
X49506190Y-78089047D01*
X49649047Y-78089047D01*
X49839523Y-78136666D01*
X49934761Y-78184285D01*
X50030000Y-78279523D01*
X50077619Y-78422380D01*
X50077619Y-78517619D01*
X50030000Y-78660476D01*
X49982380Y-78708095D01*
X50030000Y-72898095D02*
X50077619Y-72802857D01*
X50077619Y-72660000D01*
X50030000Y-72517142D01*
X49934761Y-72421904D01*
X49839523Y-72374285D01*
X49649047Y-72326666D01*
X49506190Y-72326666D01*
X49315714Y-72374285D01*
X49220476Y-72421904D01*
X49125238Y-72517142D01*
X49077619Y-72660000D01*
X49077619Y-72755238D01*
X49125238Y-72898095D01*
X49172857Y-72945714D01*
X49506190Y-72945714D01*
X49506190Y-72755238D01*
X49077619Y-73374285D02*
X50077619Y-73374285D01*
X49077619Y-73945714D01*
X50077619Y-73945714D01*
X49077619Y-74421904D02*
X50077619Y-74421904D01*
X50077619Y-74660000D01*
X50030000Y-74802857D01*
X49934761Y-74898095D01*
X49839523Y-74945714D01*
X49649047Y-74993333D01*
X49506190Y-74993333D01*
X49315714Y-74945714D01*
X49220476Y-74898095D01*
X49125238Y-74802857D01*
X49077619Y-74660000D01*
X49077619Y-74421904D01*
X49125238Y-66032380D02*
X49077619Y-66175238D01*
X49077619Y-66413333D01*
X49125238Y-66508571D01*
X49172857Y-66556190D01*
X49268095Y-66603809D01*
X49363333Y-66603809D01*
X49458571Y-66556190D01*
X49506190Y-66508571D01*
X49553809Y-66413333D01*
X49601428Y-66222857D01*
X49649047Y-66127619D01*
X49696666Y-66080000D01*
X49791904Y-66032380D01*
X49887142Y-66032380D01*
X49982380Y-66080000D01*
X50030000Y-66127619D01*
X50077619Y-66222857D01*
X50077619Y-66460952D01*
X50030000Y-66603809D01*
X48982380Y-66794285D02*
X48982380Y-67556190D01*
X50077619Y-67984761D02*
X50077619Y-68175238D01*
X50030000Y-68270476D01*
X49934761Y-68365714D01*
X49744285Y-68413333D01*
X49410952Y-68413333D01*
X49220476Y-68365714D01*
X49125238Y-68270476D01*
X49077619Y-68175238D01*
X49077619Y-67984761D01*
X49125238Y-67889523D01*
X49220476Y-67794285D01*
X49410952Y-67746666D01*
X49744285Y-67746666D01*
X49934761Y-67794285D01*
X50030000Y-67889523D01*
X50077619Y-67984761D01*
X49601428Y-69175238D02*
X49553809Y-69318095D01*
X49506190Y-69365714D01*
X49410952Y-69413333D01*
X49268095Y-69413333D01*
X49172857Y-69365714D01*
X49125238Y-69318095D01*
X49077619Y-69222857D01*
X49077619Y-68841904D01*
X50077619Y-68841904D01*
X50077619Y-69175238D01*
X50030000Y-69270476D01*
X49982380Y-69318095D01*
X49887142Y-69365714D01*
X49791904Y-69365714D01*
X49696666Y-69318095D01*
X49649047Y-69270476D01*
X49601428Y-69175238D01*
X49601428Y-68841904D01*
X49125238Y-69794285D02*
X49077619Y-69937142D01*
X49077619Y-70175238D01*
X49125238Y-70270476D01*
X49172857Y-70318095D01*
X49268095Y-70365714D01*
X49363333Y-70365714D01*
X49458571Y-70318095D01*
X49506190Y-70270476D01*
X49553809Y-70175238D01*
X49601428Y-69984761D01*
X49649047Y-69889523D01*
X49696666Y-69841904D01*
X49791904Y-69794285D01*
X49887142Y-69794285D01*
X49982380Y-69841904D01*
X50030000Y-69889523D01*
X50077619Y-69984761D01*
X50077619Y-70222857D01*
X50030000Y-70365714D01*
X50077619Y-70651428D02*
X50077619Y-71222857D01*
X49077619Y-70937142D02*
X50077619Y-70937142D01*
X49458571Y-58404285D02*
X49458571Y-59166190D01*
X49077619Y-58785238D02*
X49839523Y-58785238D01*
X50077619Y-60118571D02*
X50077619Y-59642380D01*
X49601428Y-59594761D01*
X49649047Y-59642380D01*
X49696666Y-59737619D01*
X49696666Y-59975714D01*
X49649047Y-60070952D01*
X49601428Y-60118571D01*
X49506190Y-60166190D01*
X49268095Y-60166190D01*
X49172857Y-60118571D01*
X49125238Y-60070952D01*
X49077619Y-59975714D01*
X49077619Y-59737619D01*
X49125238Y-59642380D01*
X49172857Y-59594761D01*
X50077619Y-60451904D02*
X49077619Y-60785238D01*
X50077619Y-61118571D01*
X50030000Y-62738095D02*
X50077619Y-62642857D01*
X50077619Y-62500000D01*
X50030000Y-62357142D01*
X49934761Y-62261904D01*
X49839523Y-62214285D01*
X49649047Y-62166666D01*
X49506190Y-62166666D01*
X49315714Y-62214285D01*
X49220476Y-62261904D01*
X49125238Y-62357142D01*
X49077619Y-62500000D01*
X49077619Y-62595238D01*
X49125238Y-62738095D01*
X49172857Y-62785714D01*
X49506190Y-62785714D01*
X49506190Y-62595238D01*
X49077619Y-63214285D02*
X50077619Y-63214285D01*
X49077619Y-63785714D01*
X50077619Y-63785714D01*
X49077619Y-64261904D02*
X50077619Y-64261904D01*
X50077619Y-64500000D01*
X50030000Y-64642857D01*
X49934761Y-64738095D01*
X49839523Y-64785714D01*
X49649047Y-64833333D01*
X49506190Y-64833333D01*
X49315714Y-64785714D01*
X49220476Y-64738095D01*
X49125238Y-64642857D01*
X49077619Y-64500000D01*
X49077619Y-64261904D01*
D12*
%TO.C,J11*%
X60320000Y-178435000D02*
G75*
G03*
X60320000Y-178435000I-100000J0D01*
G01*
D13*
X59620000Y-180845000D02*
X59620000Y-179755000D01*
X59620000Y-165685000D02*
X59620000Y-164595000D01*
X50420000Y-180845000D02*
X50420000Y-164595000D01*
X50420000Y-164595000D02*
X59620000Y-164595000D01*
X59620000Y-180845000D02*
X50420000Y-180845000D01*
D14*
%TO.C,CN10*%
X128270000Y-105985000D02*
X129600000Y-105985000D01*
X129600000Y-105985000D02*
X129600000Y-107315000D01*
X127000000Y-105985000D02*
X127000000Y-108585000D01*
X127000000Y-108585000D02*
X129600000Y-108585000D01*
X129600000Y-108585000D02*
X129600000Y-149285000D01*
X124400000Y-149285000D02*
X129600000Y-149285000D01*
X124400000Y-105985000D02*
X124400000Y-149285000D01*
X124400000Y-105985000D02*
X127000000Y-105985000D01*
D13*
%TO.C,J12*%
X146120000Y-129035000D02*
X155320000Y-129035000D01*
X155320000Y-145285000D02*
X146120000Y-145285000D01*
X155320000Y-129035000D02*
X155320000Y-145285000D01*
X146120000Y-144195000D02*
X146120000Y-145285000D01*
X146120000Y-129035000D02*
X146120000Y-130125000D01*
D12*
X145620000Y-131445000D02*
G75*
G03*
X145620000Y-131445000I-100000J0D01*
G01*
D14*
%TO.C,C_SLINHA1*%
X64670000Y-70850000D02*
X67410000Y-70850000D01*
X64670000Y-79090000D02*
X67410000Y-79090000D01*
X67410000Y-79090000D02*
X67410000Y-70850000D01*
X64670000Y-79090000D02*
X64670000Y-70850000D01*
%TO.C,C_SOBST1*%
X67410000Y-66930000D02*
X64670000Y-66930000D01*
X67410000Y-58690000D02*
X64670000Y-58690000D01*
X64670000Y-58690000D02*
X64670000Y-66930000D01*
X67410000Y-58690000D02*
X67410000Y-66930000D01*
%TO.C,C_RFID1*%
X145780000Y-55980000D02*
X145780000Y-53240000D01*
X154020000Y-55980000D02*
X154020000Y-53240000D01*
X154020000Y-53240000D02*
X145780000Y-53240000D01*
X154020000Y-55980000D02*
X145780000Y-55980000D01*
%TO.C,C_BLUE1*%
X97255000Y-195215000D02*
X94515000Y-195215000D01*
X97255000Y-186975000D02*
X94515000Y-186975000D01*
X94515000Y-186975000D02*
X94515000Y-195215000D01*
X97255000Y-186975000D02*
X97255000Y-195215000D01*
D12*
%TO.C,J10*%
X60320000Y-160655000D02*
G75*
G03*
X60320000Y-160655000I-100000J0D01*
G01*
D13*
X59620000Y-163065000D02*
X59620000Y-161975000D01*
X59620000Y-147905000D02*
X59620000Y-146815000D01*
X50420000Y-163065000D02*
X50420000Y-146815000D01*
X50420000Y-146815000D02*
X59620000Y-146815000D01*
X59620000Y-163065000D02*
X50420000Y-163065000D01*
D12*
%TO.C,J9*%
X60320000Y-142875000D02*
G75*
G03*
X60320000Y-142875000I-100000J0D01*
G01*
D13*
X59620000Y-145285000D02*
X59620000Y-144195000D01*
X59620000Y-130125000D02*
X59620000Y-129035000D01*
X50420000Y-145285000D02*
X50420000Y-129035000D01*
X50420000Y-129035000D02*
X59620000Y-129035000D01*
X59620000Y-145285000D02*
X50420000Y-145285000D01*
D12*
%TO.C,J8*%
X60320000Y-125095000D02*
G75*
G03*
X60320000Y-125095000I-100000J0D01*
G01*
D13*
X59620000Y-127505000D02*
X59620000Y-126415000D01*
X59620000Y-112345000D02*
X59620000Y-111255000D01*
X50420000Y-127505000D02*
X50420000Y-111255000D01*
X50420000Y-111255000D02*
X59620000Y-111255000D01*
X59620000Y-127505000D02*
X50420000Y-127505000D01*
D14*
%TO.C,PS_5V1*%
X55880000Y-26610000D02*
X57210000Y-26610000D01*
X57210000Y-26610000D02*
X57210000Y-27940000D01*
X54610000Y-26610000D02*
X54610000Y-29210000D01*
X54610000Y-29210000D02*
X57210000Y-29210000D01*
X57210000Y-29210000D02*
X57210000Y-34350000D01*
X52010000Y-34350000D02*
X57210000Y-34350000D01*
X52010000Y-26610000D02*
X52010000Y-34350000D01*
X52010000Y-26610000D02*
X54610000Y-26610000D01*
%TO.C,PS_3V3*%
X101600000Y-26610000D02*
X102930000Y-26610000D01*
X102930000Y-26610000D02*
X102930000Y-27940000D01*
X100330000Y-26610000D02*
X100330000Y-29210000D01*
X100330000Y-29210000D02*
X102930000Y-29210000D01*
X102930000Y-29210000D02*
X102930000Y-34350000D01*
X97730000Y-34350000D02*
X102930000Y-34350000D01*
X97730000Y-26610000D02*
X97730000Y-34350000D01*
X97730000Y-26610000D02*
X100330000Y-26610000D01*
D12*
%TO.C,J7*%
X145620000Y-60325000D02*
G75*
G03*
X145620000Y-60325000I-100000J0D01*
G01*
D13*
X146120000Y-57915000D02*
X146120000Y-59005000D01*
X146120000Y-73075000D02*
X146120000Y-74165000D01*
X155320000Y-57915000D02*
X155320000Y-74165000D01*
X155320000Y-74165000D02*
X146120000Y-74165000D01*
X146120000Y-57915000D02*
X155320000Y-57915000D01*
%TO.C,J6*%
X146120000Y-75695000D02*
X155320000Y-75695000D01*
X155320000Y-91945000D02*
X146120000Y-91945000D01*
X155320000Y-75695000D02*
X155320000Y-91945000D01*
X146120000Y-90855000D02*
X146120000Y-91945000D01*
X146120000Y-75695000D02*
X146120000Y-76785000D01*
D12*
X145620000Y-78105000D02*
G75*
G03*
X145620000Y-78105000I-100000J0D01*
G01*
D13*
%TO.C,J5*%
X146120000Y-93475000D02*
X155320000Y-93475000D01*
X155320000Y-109725000D02*
X146120000Y-109725000D01*
X155320000Y-93475000D02*
X155320000Y-109725000D01*
X146120000Y-108635000D02*
X146120000Y-109725000D01*
X146120000Y-93475000D02*
X146120000Y-94565000D01*
D12*
X145620000Y-95885000D02*
G75*
G03*
X145620000Y-95885000I-100000J0D01*
G01*
D13*
%TO.C,J4*%
X146120000Y-111255000D02*
X155320000Y-111255000D01*
X155320000Y-127505000D02*
X146120000Y-127505000D01*
X155320000Y-111255000D02*
X155320000Y-127505000D01*
X146120000Y-126415000D02*
X146120000Y-127505000D01*
X146120000Y-111255000D02*
X146120000Y-112345000D01*
D12*
X145620000Y-113665000D02*
G75*
G03*
X145620000Y-113665000I-100000J0D01*
G01*
%TO.C,J3*%
X60320000Y-71755000D02*
G75*
G03*
X60320000Y-71755000I-100000J0D01*
G01*
D13*
X59620000Y-74165000D02*
X59620000Y-73075000D01*
X59620000Y-59005000D02*
X59620000Y-57915000D01*
X50420000Y-74165000D02*
X50420000Y-57915000D01*
X50420000Y-57915000D02*
X59620000Y-57915000D01*
X59620000Y-74165000D02*
X50420000Y-74165000D01*
D12*
%TO.C,J2*%
X60320000Y-89535000D02*
G75*
G03*
X60320000Y-89535000I-100000J0D01*
G01*
D13*
X59620000Y-91945000D02*
X59620000Y-90855000D01*
X59620000Y-76785000D02*
X59620000Y-75695000D01*
X50420000Y-91945000D02*
X50420000Y-75695000D01*
X50420000Y-75695000D02*
X59620000Y-75695000D01*
X59620000Y-91945000D02*
X50420000Y-91945000D01*
D12*
%TO.C,J1*%
X60320000Y-107315000D02*
G75*
G03*
X60320000Y-107315000I-100000J0D01*
G01*
D13*
X59620000Y-109725000D02*
X59620000Y-108635000D01*
X59620000Y-94565000D02*
X59620000Y-93475000D01*
X50420000Y-109725000D02*
X50420000Y-93475000D01*
X50420000Y-93475000D02*
X59620000Y-93475000D01*
X59620000Y-109725000D02*
X50420000Y-109725000D01*
D14*
%TO.C,CN9*%
X82550000Y-111065000D02*
X83880000Y-111065000D01*
X83880000Y-111065000D02*
X83880000Y-112395000D01*
X81280000Y-111065000D02*
X81280000Y-113665000D01*
X81280000Y-113665000D02*
X83880000Y-113665000D01*
X83880000Y-113665000D02*
X83880000Y-149285000D01*
X78680000Y-149285000D02*
X83880000Y-149285000D01*
X78680000Y-111065000D02*
X78680000Y-149285000D01*
X78680000Y-111065000D02*
X81280000Y-111065000D01*
%TO.C,CN8*%
X82550000Y-88205000D02*
X83880000Y-88205000D01*
X83880000Y-88205000D02*
X83880000Y-89535000D01*
X81280000Y-88205000D02*
X81280000Y-90805000D01*
X81280000Y-90805000D02*
X83880000Y-90805000D01*
X83880000Y-90805000D02*
X83880000Y-108645000D01*
X78680000Y-108645000D02*
X83880000Y-108645000D01*
X78680000Y-88205000D02*
X78680000Y-108645000D01*
X78680000Y-88205000D02*
X81280000Y-88205000D01*
%TO.C,CN7*%
X128270000Y-79315000D02*
X129600000Y-79315000D01*
X129600000Y-79315000D02*
X129600000Y-80645000D01*
X127000000Y-79315000D02*
X127000000Y-81915000D01*
X127000000Y-81915000D02*
X129600000Y-81915000D01*
X129600000Y-81915000D02*
X129600000Y-104835000D01*
X124400000Y-104835000D02*
X129600000Y-104835000D01*
X124400000Y-79315000D02*
X124400000Y-104835000D01*
X124400000Y-79315000D02*
X127000000Y-79315000D01*
%TO.C,Bluetooth1*%
X114360000Y-193675000D02*
X114360000Y-195005000D01*
X114360000Y-195005000D02*
X113030000Y-195005000D01*
X111760000Y-195005000D02*
X99000000Y-195005000D01*
X99000000Y-192345000D02*
X99000000Y-195005000D01*
X111760000Y-192345000D02*
X99000000Y-192345000D01*
X111760000Y-192345000D02*
X111760000Y-195005000D01*
%TO.C,H4*%
D10*
X145288095Y-182142380D02*
X145288095Y-181142380D01*
X145288095Y-181618571D02*
X145859523Y-181618571D01*
X145859523Y-182142380D02*
X145859523Y-181142380D01*
X146764285Y-181475714D02*
X146764285Y-182142380D01*
X146526190Y-181094761D02*
X146288095Y-181809047D01*
X146907142Y-181809047D01*
%TO.C,H3*%
X145288095Y-42442380D02*
X145288095Y-41442380D01*
X145288095Y-41918571D02*
X145859523Y-41918571D01*
X145859523Y-42442380D02*
X145859523Y-41442380D01*
X146240476Y-41442380D02*
X146859523Y-41442380D01*
X146526190Y-41823333D01*
X146669047Y-41823333D01*
X146764285Y-41870952D01*
X146811904Y-41918571D01*
X146859523Y-42013809D01*
X146859523Y-42251904D01*
X146811904Y-42347142D01*
X146764285Y-42394761D01*
X146669047Y-42442380D01*
X146383333Y-42442380D01*
X146288095Y-42394761D01*
X146240476Y-42347142D01*
%TO.C,H2*%
X62738095Y-182142380D02*
X62738095Y-181142380D01*
X62738095Y-181618571D02*
X63309523Y-181618571D01*
X63309523Y-182142380D02*
X63309523Y-181142380D01*
X63738095Y-181237619D02*
X63785714Y-181190000D01*
X63880952Y-181142380D01*
X64119047Y-181142380D01*
X64214285Y-181190000D01*
X64261904Y-181237619D01*
X64309523Y-181332857D01*
X64309523Y-181428095D01*
X64261904Y-181570952D01*
X63690476Y-182142380D01*
X64309523Y-182142380D01*
%TO.C,H1*%
X58928095Y-41807380D02*
X58928095Y-40807380D01*
X58928095Y-41283571D02*
X59499523Y-41283571D01*
X59499523Y-41807380D02*
X59499523Y-40807380D01*
X60499523Y-41807380D02*
X59928095Y-41807380D01*
X60213809Y-41807380D02*
X60213809Y-40807380D01*
X60118571Y-40950238D01*
X60023333Y-41045476D01*
X59928095Y-41093095D01*
%TO.C,J11*%
D15*
X60412380Y-179879523D02*
X61126666Y-179879523D01*
X61269523Y-179927142D01*
X61364761Y-180022380D01*
X61412380Y-180165238D01*
X61412380Y-180260476D01*
X61412380Y-178879523D02*
X61412380Y-179450952D01*
X61412380Y-179165238D02*
X60412380Y-179165238D01*
X60555238Y-179260476D01*
X60650476Y-179355714D01*
X60698095Y-179450952D01*
X61412380Y-177927142D02*
X61412380Y-178498571D01*
X61412380Y-178212857D02*
X60412380Y-178212857D01*
X60555238Y-178308095D01*
X60650476Y-178403333D01*
X60698095Y-178498571D01*
%TO.C,CN10*%
D10*
X125833333Y-151487142D02*
X125785714Y-151534761D01*
X125642857Y-151582380D01*
X125547619Y-151582380D01*
X125404761Y-151534761D01*
X125309523Y-151439523D01*
X125261904Y-151344285D01*
X125214285Y-151153809D01*
X125214285Y-151010952D01*
X125261904Y-150820476D01*
X125309523Y-150725238D01*
X125404761Y-150630000D01*
X125547619Y-150582380D01*
X125642857Y-150582380D01*
X125785714Y-150630000D01*
X125833333Y-150677619D01*
X126261904Y-151582380D02*
X126261904Y-150582380D01*
X126833333Y-151582380D01*
X126833333Y-150582380D01*
X127833333Y-151582380D02*
X127261904Y-151582380D01*
X127547619Y-151582380D02*
X127547619Y-150582380D01*
X127452380Y-150725238D01*
X127357142Y-150820476D01*
X127261904Y-150868095D01*
X128452380Y-150582380D02*
X128547619Y-150582380D01*
X128642857Y-150630000D01*
X128690476Y-150677619D01*
X128738095Y-150772857D01*
X128785714Y-150963333D01*
X128785714Y-151201428D01*
X128738095Y-151391904D01*
X128690476Y-151487142D01*
X128642857Y-151534761D01*
X128547619Y-151582380D01*
X128452380Y-151582380D01*
X128357142Y-151534761D01*
X128309523Y-151487142D01*
X128261904Y-151391904D01*
X128214285Y-151201428D01*
X128214285Y-150963333D01*
X128261904Y-150772857D01*
X128309523Y-150677619D01*
X128357142Y-150630000D01*
X128452380Y-150582380D01*
%TO.C,J12*%
D15*
X156407380Y-132269523D02*
X157121666Y-132269523D01*
X157264523Y-132317142D01*
X157359761Y-132412380D01*
X157407380Y-132555238D01*
X157407380Y-132650476D01*
X157407380Y-131269523D02*
X157407380Y-131840952D01*
X157407380Y-131555238D02*
X156407380Y-131555238D01*
X156550238Y-131650476D01*
X156645476Y-131745714D01*
X156693095Y-131840952D01*
X156502619Y-130888571D02*
X156455000Y-130840952D01*
X156407380Y-130745714D01*
X156407380Y-130507619D01*
X156455000Y-130412380D01*
X156502619Y-130364761D01*
X156597857Y-130317142D01*
X156693095Y-130317142D01*
X156835952Y-130364761D01*
X157407380Y-130936190D01*
X157407380Y-130317142D01*
%TO.C,J10*%
X60412380Y-162099523D02*
X61126666Y-162099523D01*
X61269523Y-162147142D01*
X61364761Y-162242380D01*
X61412380Y-162385238D01*
X61412380Y-162480476D01*
X61412380Y-161099523D02*
X61412380Y-161670952D01*
X61412380Y-161385238D02*
X60412380Y-161385238D01*
X60555238Y-161480476D01*
X60650476Y-161575714D01*
X60698095Y-161670952D01*
X60412380Y-160480476D02*
X60412380Y-160385238D01*
X60460000Y-160290000D01*
X60507619Y-160242380D01*
X60602857Y-160194761D01*
X60793333Y-160147142D01*
X61031428Y-160147142D01*
X61221904Y-160194761D01*
X61317142Y-160242380D01*
X61364761Y-160290000D01*
X61412380Y-160385238D01*
X61412380Y-160480476D01*
X61364761Y-160575714D01*
X61317142Y-160623333D01*
X61221904Y-160670952D01*
X61031428Y-160718571D01*
X60793333Y-160718571D01*
X60602857Y-160670952D01*
X60507619Y-160623333D01*
X60460000Y-160575714D01*
X60412380Y-160480476D01*
%TO.C,J9*%
X60412380Y-145113333D02*
X61126666Y-145113333D01*
X61269523Y-145160952D01*
X61364761Y-145256190D01*
X61412380Y-145399047D01*
X61412380Y-145494285D01*
X61412380Y-144589523D02*
X61412380Y-144399047D01*
X61364761Y-144303809D01*
X61317142Y-144256190D01*
X61174285Y-144160952D01*
X60983809Y-144113333D01*
X60602857Y-144113333D01*
X60507619Y-144160952D01*
X60460000Y-144208571D01*
X60412380Y-144303809D01*
X60412380Y-144494285D01*
X60460000Y-144589523D01*
X60507619Y-144637142D01*
X60602857Y-144684761D01*
X60840952Y-144684761D01*
X60936190Y-144637142D01*
X60983809Y-144589523D01*
X61031428Y-144494285D01*
X61031428Y-144303809D01*
X60983809Y-144208571D01*
X60936190Y-144160952D01*
X60840952Y-144113333D01*
%TO.C,J8*%
X60412380Y-127333333D02*
X61126666Y-127333333D01*
X61269523Y-127380952D01*
X61364761Y-127476190D01*
X61412380Y-127619047D01*
X61412380Y-127714285D01*
X60840952Y-126714285D02*
X60793333Y-126809523D01*
X60745714Y-126857142D01*
X60650476Y-126904761D01*
X60602857Y-126904761D01*
X60507619Y-126857142D01*
X60460000Y-126809523D01*
X60412380Y-126714285D01*
X60412380Y-126523809D01*
X60460000Y-126428571D01*
X60507619Y-126380952D01*
X60602857Y-126333333D01*
X60650476Y-126333333D01*
X60745714Y-126380952D01*
X60793333Y-126428571D01*
X60840952Y-126523809D01*
X60840952Y-126714285D01*
X60888571Y-126809523D01*
X60936190Y-126857142D01*
X61031428Y-126904761D01*
X61221904Y-126904761D01*
X61317142Y-126857142D01*
X61364761Y-126809523D01*
X61412380Y-126714285D01*
X61412380Y-126523809D01*
X61364761Y-126428571D01*
X61317142Y-126380952D01*
X61221904Y-126333333D01*
X61031428Y-126333333D01*
X60936190Y-126380952D01*
X60888571Y-126428571D01*
X60840952Y-126523809D01*
%TO.C,PS_5V1*%
D10*
X52110000Y-25622380D02*
X52110000Y-24622380D01*
X52490952Y-24622380D01*
X52586190Y-24670000D01*
X52633809Y-24717619D01*
X52681428Y-24812857D01*
X52681428Y-24955714D01*
X52633809Y-25050952D01*
X52586190Y-25098571D01*
X52490952Y-25146190D01*
X52110000Y-25146190D01*
X53062380Y-25574761D02*
X53205238Y-25622380D01*
X53443333Y-25622380D01*
X53538571Y-25574761D01*
X53586190Y-25527142D01*
X53633809Y-25431904D01*
X53633809Y-25336666D01*
X53586190Y-25241428D01*
X53538571Y-25193809D01*
X53443333Y-25146190D01*
X53252857Y-25098571D01*
X53157619Y-25050952D01*
X53110000Y-25003333D01*
X53062380Y-24908095D01*
X53062380Y-24812857D01*
X53110000Y-24717619D01*
X53157619Y-24670000D01*
X53252857Y-24622380D01*
X53490952Y-24622380D01*
X53633809Y-24670000D01*
X53824285Y-25717619D02*
X54586190Y-25717619D01*
X55300476Y-24622380D02*
X54824285Y-24622380D01*
X54776666Y-25098571D01*
X54824285Y-25050952D01*
X54919523Y-25003333D01*
X55157619Y-25003333D01*
X55252857Y-25050952D01*
X55300476Y-25098571D01*
X55348095Y-25193809D01*
X55348095Y-25431904D01*
X55300476Y-25527142D01*
X55252857Y-25574761D01*
X55157619Y-25622380D01*
X54919523Y-25622380D01*
X54824285Y-25574761D01*
X54776666Y-25527142D01*
X55633809Y-24622380D02*
X55967142Y-25622380D01*
X56300476Y-24622380D01*
X57157619Y-25622380D02*
X56586190Y-25622380D01*
X56871904Y-25622380D02*
X56871904Y-24622380D01*
X56776666Y-24765238D01*
X56681428Y-24860476D01*
X56586190Y-24908095D01*
%TO.C,PS_3V3*%
X97830000Y-25622380D02*
X97830000Y-24622380D01*
X98210952Y-24622380D01*
X98306190Y-24670000D01*
X98353809Y-24717619D01*
X98401428Y-24812857D01*
X98401428Y-24955714D01*
X98353809Y-25050952D01*
X98306190Y-25098571D01*
X98210952Y-25146190D01*
X97830000Y-25146190D01*
X98782380Y-25574761D02*
X98925238Y-25622380D01*
X99163333Y-25622380D01*
X99258571Y-25574761D01*
X99306190Y-25527142D01*
X99353809Y-25431904D01*
X99353809Y-25336666D01*
X99306190Y-25241428D01*
X99258571Y-25193809D01*
X99163333Y-25146190D01*
X98972857Y-25098571D01*
X98877619Y-25050952D01*
X98830000Y-25003333D01*
X98782380Y-24908095D01*
X98782380Y-24812857D01*
X98830000Y-24717619D01*
X98877619Y-24670000D01*
X98972857Y-24622380D01*
X99210952Y-24622380D01*
X99353809Y-24670000D01*
X99544285Y-25717619D02*
X100306190Y-25717619D01*
X100449047Y-24622380D02*
X101068095Y-24622380D01*
X100734761Y-25003333D01*
X100877619Y-25003333D01*
X100972857Y-25050952D01*
X101020476Y-25098571D01*
X101068095Y-25193809D01*
X101068095Y-25431904D01*
X101020476Y-25527142D01*
X100972857Y-25574761D01*
X100877619Y-25622380D01*
X100591904Y-25622380D01*
X100496666Y-25574761D01*
X100449047Y-25527142D01*
X101353809Y-24622380D02*
X101687142Y-25622380D01*
X102020476Y-24622380D01*
X102258571Y-24622380D02*
X102877619Y-24622380D01*
X102544285Y-25003333D01*
X102687142Y-25003333D01*
X102782380Y-25050952D01*
X102830000Y-25098571D01*
X102877619Y-25193809D01*
X102877619Y-25431904D01*
X102830000Y-25527142D01*
X102782380Y-25574761D01*
X102687142Y-25622380D01*
X102401428Y-25622380D01*
X102306190Y-25574761D01*
X102258571Y-25527142D01*
%TO.C,J7*%
D15*
X156407380Y-60673333D02*
X157121666Y-60673333D01*
X157264523Y-60720952D01*
X157359761Y-60816190D01*
X157407380Y-60959047D01*
X157407380Y-61054285D01*
X156407380Y-60292380D02*
X156407380Y-59625714D01*
X157407380Y-60054285D01*
%TO.C,J6*%
X156407380Y-78453333D02*
X157121666Y-78453333D01*
X157264523Y-78500952D01*
X157359761Y-78596190D01*
X157407380Y-78739047D01*
X157407380Y-78834285D01*
X156407380Y-77548571D02*
X156407380Y-77739047D01*
X156455000Y-77834285D01*
X156502619Y-77881904D01*
X156645476Y-77977142D01*
X156835952Y-78024761D01*
X157216904Y-78024761D01*
X157312142Y-77977142D01*
X157359761Y-77929523D01*
X157407380Y-77834285D01*
X157407380Y-77643809D01*
X157359761Y-77548571D01*
X157312142Y-77500952D01*
X157216904Y-77453333D01*
X156978809Y-77453333D01*
X156883571Y-77500952D01*
X156835952Y-77548571D01*
X156788333Y-77643809D01*
X156788333Y-77834285D01*
X156835952Y-77929523D01*
X156883571Y-77977142D01*
X156978809Y-78024761D01*
%TO.C,J5*%
X156407380Y-96233333D02*
X157121666Y-96233333D01*
X157264523Y-96280952D01*
X157359761Y-96376190D01*
X157407380Y-96519047D01*
X157407380Y-96614285D01*
X156407380Y-95280952D02*
X156407380Y-95757142D01*
X156883571Y-95804761D01*
X156835952Y-95757142D01*
X156788333Y-95661904D01*
X156788333Y-95423809D01*
X156835952Y-95328571D01*
X156883571Y-95280952D01*
X156978809Y-95233333D01*
X157216904Y-95233333D01*
X157312142Y-95280952D01*
X157359761Y-95328571D01*
X157407380Y-95423809D01*
X157407380Y-95661904D01*
X157359761Y-95757142D01*
X157312142Y-95804761D01*
%TO.C,J4*%
X156407380Y-114013333D02*
X157121666Y-114013333D01*
X157264523Y-114060952D01*
X157359761Y-114156190D01*
X157407380Y-114299047D01*
X157407380Y-114394285D01*
X156740714Y-113108571D02*
X157407380Y-113108571D01*
X156359761Y-113346666D02*
X157074047Y-113584761D01*
X157074047Y-112965714D01*
%TO.C,J3*%
X60412380Y-73993333D02*
X61126666Y-73993333D01*
X61269523Y-74040952D01*
X61364761Y-74136190D01*
X61412380Y-74279047D01*
X61412380Y-74374285D01*
X60412380Y-73612380D02*
X60412380Y-72993333D01*
X60793333Y-73326666D01*
X60793333Y-73183809D01*
X60840952Y-73088571D01*
X60888571Y-73040952D01*
X60983809Y-72993333D01*
X61221904Y-72993333D01*
X61317142Y-73040952D01*
X61364761Y-73088571D01*
X61412380Y-73183809D01*
X61412380Y-73469523D01*
X61364761Y-73564761D01*
X61317142Y-73612380D01*
%TO.C,J2*%
X60412380Y-91773333D02*
X61126666Y-91773333D01*
X61269523Y-91820952D01*
X61364761Y-91916190D01*
X61412380Y-92059047D01*
X61412380Y-92154285D01*
X60507619Y-91344761D02*
X60460000Y-91297142D01*
X60412380Y-91201904D01*
X60412380Y-90963809D01*
X60460000Y-90868571D01*
X60507619Y-90820952D01*
X60602857Y-90773333D01*
X60698095Y-90773333D01*
X60840952Y-90820952D01*
X61412380Y-91392380D01*
X61412380Y-90773333D01*
%TO.C,J1*%
X60412380Y-109553333D02*
X61126666Y-109553333D01*
X61269523Y-109600952D01*
X61364761Y-109696190D01*
X61412380Y-109839047D01*
X61412380Y-109934285D01*
X61412380Y-108553333D02*
X61412380Y-109124761D01*
X61412380Y-108839047D02*
X60412380Y-108839047D01*
X60555238Y-108934285D01*
X60650476Y-109029523D01*
X60698095Y-109124761D01*
%TO.C,CN9*%
D10*
X80589523Y-151487142D02*
X80541904Y-151534761D01*
X80399047Y-151582380D01*
X80303809Y-151582380D01*
X80160952Y-151534761D01*
X80065714Y-151439523D01*
X80018095Y-151344285D01*
X79970476Y-151153809D01*
X79970476Y-151010952D01*
X80018095Y-150820476D01*
X80065714Y-150725238D01*
X80160952Y-150630000D01*
X80303809Y-150582380D01*
X80399047Y-150582380D01*
X80541904Y-150630000D01*
X80589523Y-150677619D01*
X81018095Y-151582380D02*
X81018095Y-150582380D01*
X81589523Y-151582380D01*
X81589523Y-150582380D01*
X82113333Y-151582380D02*
X82303809Y-151582380D01*
X82399047Y-151534761D01*
X82446666Y-151487142D01*
X82541904Y-151344285D01*
X82589523Y-151153809D01*
X82589523Y-150772857D01*
X82541904Y-150677619D01*
X82494285Y-150630000D01*
X82399047Y-150582380D01*
X82208571Y-150582380D01*
X82113333Y-150630000D01*
X82065714Y-150677619D01*
X82018095Y-150772857D01*
X82018095Y-151010952D01*
X82065714Y-151106190D01*
X82113333Y-151153809D01*
X82208571Y-151201428D01*
X82399047Y-151201428D01*
X82494285Y-151153809D01*
X82541904Y-151106190D01*
X82589523Y-151010952D01*
%TO.C,CN8*%
X80589523Y-87122142D02*
X80541904Y-87169761D01*
X80399047Y-87217380D01*
X80303809Y-87217380D01*
X80160952Y-87169761D01*
X80065714Y-87074523D01*
X80018095Y-86979285D01*
X79970476Y-86788809D01*
X79970476Y-86645952D01*
X80018095Y-86455476D01*
X80065714Y-86360238D01*
X80160952Y-86265000D01*
X80303809Y-86217380D01*
X80399047Y-86217380D01*
X80541904Y-86265000D01*
X80589523Y-86312619D01*
X81018095Y-87217380D02*
X81018095Y-86217380D01*
X81589523Y-87217380D01*
X81589523Y-86217380D01*
X82208571Y-86645952D02*
X82113333Y-86598333D01*
X82065714Y-86550714D01*
X82018095Y-86455476D01*
X82018095Y-86407857D01*
X82065714Y-86312619D01*
X82113333Y-86265000D01*
X82208571Y-86217380D01*
X82399047Y-86217380D01*
X82494285Y-86265000D01*
X82541904Y-86312619D01*
X82589523Y-86407857D01*
X82589523Y-86455476D01*
X82541904Y-86550714D01*
X82494285Y-86598333D01*
X82399047Y-86645952D01*
X82208571Y-86645952D01*
X82113333Y-86693571D01*
X82065714Y-86741190D01*
X82018095Y-86836428D01*
X82018095Y-87026904D01*
X82065714Y-87122142D01*
X82113333Y-87169761D01*
X82208571Y-87217380D01*
X82399047Y-87217380D01*
X82494285Y-87169761D01*
X82541904Y-87122142D01*
X82589523Y-87026904D01*
X82589523Y-86836428D01*
X82541904Y-86741190D01*
X82494285Y-86693571D01*
X82399047Y-86645952D01*
%TO.C,CN7*%
X126309523Y-78232142D02*
X126261904Y-78279761D01*
X126119047Y-78327380D01*
X126023809Y-78327380D01*
X125880952Y-78279761D01*
X125785714Y-78184523D01*
X125738095Y-78089285D01*
X125690476Y-77898809D01*
X125690476Y-77755952D01*
X125738095Y-77565476D01*
X125785714Y-77470238D01*
X125880952Y-77375000D01*
X126023809Y-77327380D01*
X126119047Y-77327380D01*
X126261904Y-77375000D01*
X126309523Y-77422619D01*
X126738095Y-78327380D02*
X126738095Y-77327380D01*
X127309523Y-78327380D01*
X127309523Y-77327380D01*
X127690476Y-77327380D02*
X128357142Y-77327380D01*
X127928571Y-78327380D01*
%TD*%
M02*
